<svg width="688" height="401" viewBox="0 0 688 401" fill="none" xmlns="http://www.w3.org/2000/svg">
<path d="M131.114 195.884V130.776H174.275V195.884H214.254V237.087H174.275V304.561H131.114V237.087H0V202.574L93.8279 29.8495H138.539L49.4432 195.884H131.114Z" fill="url(#paint0_linear_596_247)"/>
<path d="M604.741 195.884V130.776H647.901V195.884H687.962V237.087H647.901V304.561H604.741V237.087H473.708V202.574L567.454 29.8495H612.247L523.151 195.884H604.741Z" fill="url(#paint1_linear_596_247)"/>
<path d="M347.734 272.905C347.734 297.789 326.031 318.024 292.498 318.024C258.965 318.024 226.329 297.789 226.329 272.905C226.329 247.938 258.965 227.704 292.498 227.704C326.031 227.704 347.734 247.938 347.734 272.905Z" fill="url(#paint2_linear_596_247)"/>
<path d="M280.83 247.857C280.83 249.815 280.259 251.283 278.791 252.507C277.404 253.731 275.853 254.139 273.814 254.139C271.774 254.139 269.816 254.221 268.429 252.997C266.96 251.691 265.736 249.815 265.736 247.857C265.736 245.817 266.634 243.614 268.102 242.309C269.489 241.085 271.774 241.166 273.814 241.166C275.853 241.166 278.056 241.166 279.443 242.39C280.912 243.614 280.83 245.817 280.83 247.857Z" fill="#A3A3A3"/>
<path d="M324.97 254.057C324.97 256.016 324.317 258.218 322.849 259.524C321.461 260.748 319.259 261.319 317.219 261.319C315.179 261.319 313.221 260.421 311.834 259.198C310.365 257.892 310.202 256.016 310.202 254.057C310.202 252.018 310.773 250.631 312.242 249.325C313.629 248.101 315.179 247.693 317.219 247.693C319.259 247.693 321.217 247.693 322.604 248.917C323.991 250.141 324.97 252.018 324.97 254.057Z" fill="#A3A3A3"/>
<path d="M291.764 237.087C291.764 238.963 289.724 241.085 287.766 241.085C285.726 241.085 284.339 238.963 284.339 237.087C284.339 235.292 285.726 233.089 287.766 233.089C289.724 233.089 291.764 235.292 291.764 237.087Z" fill="#A3A3A3"/>
<path d="M296.415 249.733C296.415 251.528 294.62 253.078 292.58 253.078C290.622 253.078 288.256 251.528 288.256 249.733C288.256 247.857 290.622 246.225 292.58 246.225C294.62 246.225 296.415 247.857 296.415 249.733Z" fill="#A3A3A3"/>
<path d="M256.435 265.154C256.435 267.03 255.13 268.58 253.743 269.804C252.437 270.946 250.806 271.762 248.847 271.762C246.889 271.762 244.686 271.599 243.381 270.457C241.994 269.233 241.423 267.03 241.423 265.154C241.423 263.195 242.402 261.482 243.789 260.258C245.094 259.116 246.889 257.729 248.847 257.729C250.806 257.729 252.682 259.034 253.988 260.177C255.375 261.4 256.435 263.195 256.435 265.154Z" fill="#A3A3A3"/>
<path d="M305.552 270.702C305.552 273.557 304.736 276.087 302.696 277.963C300.656 279.676 298.127 281.471 295.108 281.471C292.171 281.471 289.234 280.084 287.194 278.371C285.154 276.494 284.257 273.557 284.257 270.702C284.257 267.846 285.236 265.072 287.357 263.195C289.315 261.482 292.171 260.829 295.108 260.829C298.127 260.829 300.493 262.053 302.451 263.767C304.491 265.643 305.552 267.846 305.552 270.702Z" fill="#A3A3A3"/>
<path d="M311.589 240.432C311.589 243.532 308.489 246.714 305.062 246.714C301.636 246.714 299.433 243.532 299.433 240.432C299.433 237.332 301.636 234.068 305.062 234.068C308.489 234.068 311.589 237.332 311.589 240.432Z" fill="#A3A3A3"/>
<path d="M293.233 303.909C292.581 305.214 288.664 287.672 288.093 273.149C287.522 258.626 290.378 256.831 292.907 260.911C295.518 265.072 301.311 285.796 293.233 303.909Z" fill="url(#paint3_linear_596_247)"/>
<path d="M290.297 300.727C290.378 302.195 278.792 288.488 271.531 275.842C264.351 263.195 266.064 260.258 270.226 262.787C274.387 265.235 289.073 280.982 290.297 300.727Z" fill="url(#paint4_linear_596_247)"/>
<path d="M290.133 303.501C290.704 304.398 278.466 299.666 269.409 294.118C260.353 288.57 260.434 286.122 263.943 286.204C267.533 286.367 282.382 291.262 290.133 303.501Z" fill="url(#paint5_linear_596_247)"/>
<path d="M472.975 270.702C472.975 295.668 451.272 315.902 417.739 315.902C384.206 315.902 351.488 295.668 351.488 270.702C351.488 245.735 384.206 225.583 417.739 225.583C451.272 225.583 472.975 245.735 472.975 270.702Z" fill="url(#paint6_linear_596_247)"/>
<path d="M422.552 247.938C422.552 249.896 421.981 251.365 420.512 252.67C419.125 253.894 417.575 254.302 415.535 254.302C413.496 254.302 411.537 254.302 410.15 253.078C408.682 251.854 407.458 249.896 407.458 247.938C407.458 245.98 408.437 243.695 409.824 242.39C411.211 241.248 413.496 241.329 415.535 241.329C417.575 241.329 419.778 241.248 421.165 242.472C422.634 243.777 422.552 245.98 422.552 247.938Z" fill="#B3B3B3"/>
<path d="M466.774 254.139C466.774 256.179 466.04 258.3 464.571 259.605C463.184 260.829 460.981 261.482 458.942 261.482C456.902 261.482 454.944 260.503 453.557 259.361C452.088 258.055 451.925 256.179 451.925 254.139C451.925 252.181 452.496 250.712 453.965 249.407C455.352 248.265 456.902 247.857 458.942 247.857C460.981 247.857 462.939 247.775 464.326 248.999C465.795 250.304 466.774 252.181 466.774 254.139Z" fill="#B3B3B3"/>
<path d="M433.486 237.25C433.486 239.045 431.527 241.248 429.488 241.248C427.448 241.248 426.143 239.045 426.143 237.25C426.143 235.373 427.448 233.171 429.488 233.171C431.527 233.171 433.486 235.373 433.486 237.25Z" fill="#B3B3B3"/>
<path d="M438.218 249.815C438.218 251.691 436.341 253.242 434.383 253.242C432.344 253.242 429.978 251.691 429.978 249.815C429.978 248.02 432.344 246.306 434.383 246.306C436.341 246.306 438.218 248.02 438.218 249.815Z" fill="#B3B3B3"/>
<path d="M398.157 265.235C398.157 267.112 396.852 268.743 395.546 269.967C394.241 271.11 392.527 271.844 390.569 271.844C388.611 271.844 386.408 271.681 385.103 270.538C383.797 269.315 383.145 267.112 383.145 265.235C383.145 263.359 384.205 261.564 385.511 260.421C386.816 259.279 388.611 257.892 390.569 257.892C392.527 257.892 394.404 259.198 395.709 260.34C397.096 261.482 398.157 263.359 398.157 265.235Z" fill="#B3B3B3"/>
<path d="M447.274 270.865C447.274 273.72 446.54 276.168 444.419 278.045C442.461 279.758 439.85 281.553 436.912 281.553C433.894 281.553 430.956 280.248 428.917 278.453C426.877 276.658 425.979 273.72 425.979 270.865C425.979 267.928 426.959 265.154 429.08 263.277C431.038 261.564 433.894 260.911 436.912 260.911C439.85 260.911 442.216 262.135 444.174 263.93C446.295 265.725 447.274 267.928 447.274 270.865Z" fill="#B3B3B3"/>
<path d="M453.311 240.514C453.311 243.696 450.211 246.796 446.784 246.796C443.439 246.796 441.154 243.696 441.154 240.514C441.154 237.413 443.439 234.15 446.784 234.15C450.211 234.15 453.311 237.413 453.311 240.514Z" fill="#B3B3B3"/>
<path d="M425.571 304.561C425.571 333.036 400.768 356.126 362.584 356.126C324.319 356.126 287.032 333.036 287.032 304.561C287.032 276.168 324.319 253.078 362.584 253.078C400.768 253.078 425.571 276.168 425.571 304.561Z" fill="url(#paint7_linear_596_247)"/>
<path d="M362.421 273.149C362.421 275.107 361.85 276.576 360.381 277.881C358.994 279.105 357.444 279.513 355.404 279.513C353.365 279.513 351.407 279.513 350.02 278.289C348.551 276.984 347.327 275.107 347.327 273.149C347.327 271.191 348.225 268.907 349.693 267.601C351.08 266.459 353.365 266.541 355.404 266.541C357.444 266.541 359.647 266.459 361.034 267.683C362.503 268.988 362.421 271.191 362.421 273.149Z" fill="#C7C7C7"/>
<path d="M406.561 279.35C406.561 281.39 405.908 283.511 404.439 284.817C403.052 286.04 400.849 286.693 398.81 286.693C396.77 286.693 394.812 285.714 393.425 284.572C391.956 283.266 391.793 281.39 391.793 279.35C391.793 277.392 392.364 275.923 393.833 274.618C395.22 273.476 396.77 273.068 398.81 273.068C400.849 273.068 402.808 272.986 404.195 274.21C405.582 275.515 406.561 277.392 406.561 279.35Z" fill="#C7C7C7"/>
<path d="M373.354 262.461C373.354 264.256 371.315 266.459 369.356 266.459C367.317 266.459 365.93 264.256 365.93 262.461C365.93 260.584 367.317 258.463 369.356 258.463C371.315 258.463 373.354 260.584 373.354 262.461Z" fill="#C7C7C7"/>
<path d="M378.006 275.026C378.006 276.902 376.211 278.453 374.171 278.453C372.213 278.453 369.847 276.902 369.847 275.026C369.847 273.231 372.213 271.518 374.171 271.518C376.211 271.518 378.006 273.231 378.006 275.026Z" fill="#C7C7C7"/>
<path d="M338.026 290.446C338.026 292.323 336.721 293.955 335.334 295.178C334.028 296.321 332.396 297.055 330.438 297.055C328.48 297.055 326.277 296.892 324.972 295.75C323.585 294.526 323.014 292.323 323.014 290.446C323.014 288.57 323.993 286.775 325.38 285.632C326.685 284.49 328.48 283.103 330.438 283.103C332.396 283.103 334.273 284.409 335.578 285.551C336.965 286.693 338.026 288.57 338.026 290.446Z" fill="#C7C7C7"/>
<path d="M387.143 296.076C387.143 298.932 386.327 301.379 384.287 303.256C382.247 304.969 379.718 306.764 376.699 306.764C373.762 306.764 370.743 305.459 368.785 303.664C366.745 301.869 365.848 298.932 365.848 296.076C365.848 293.139 366.827 290.365 368.866 288.488C370.906 286.775 373.762 286.122 376.699 286.122C379.718 286.122 382.084 287.346 384.042 289.141C386.082 290.936 387.143 293.139 387.143 296.076Z" fill="#C7C7C7"/>
<path d="M393.18 265.725C393.18 268.907 390.08 272.007 386.653 272.007C383.226 272.007 381.023 268.907 381.023 265.725C381.023 262.624 383.226 259.361 386.653 259.361C390.08 259.361 393.18 262.624 393.18 265.725Z" fill="#C7C7C7"/>
<path d="M434.138 323.98C433.404 325.611 428.509 303.745 427.774 285.633C427.04 267.601 430.63 265.317 433.812 270.457C436.994 275.597 444.174 301.379 434.138 323.98Z" fill="url(#paint8_linear_596_247)"/>
<path d="M430.548 319.982C430.63 321.777 416.188 304.643 407.213 288.978C398.239 273.312 400.36 269.641 405.5 272.741C410.722 275.76 428.998 295.342 430.548 319.982Z" fill="url(#paint9_linear_596_247)"/>
<path d="M430.303 323.408C431.037 324.469 415.78 318.595 404.521 311.741C393.262 304.888 393.343 301.787 397.749 301.95C402.155 302.114 420.676 308.151 430.303 323.408Z" fill="url(#paint10_linear_596_247)"/>
<path d="M384.532 166.267C417.249 183.483 446.295 227.378 433.649 227.378C421.002 227.378 267.614 227.378 267.614 227.378C278.058 147.583 351.896 149.052 384.532 166.267Z" fill="url(#paint11_linear_596_247)"/>
<g style="mix-blend-mode:multiply">
<path d="M303.595 227.378C282.545 227.378 267.614 227.378 267.614 227.378C273.652 181.116 301.066 162.188 329.377 157.782C331.744 166.267 332.233 175.405 330.601 184.298C326.195 208.449 315.834 221.014 303.595 227.378Z" fill="#CCBAB3"/>
</g>
<path d="M471.343 274.455C471.343 274.455 478.115 253.649 488.64 245.246C499.246 236.842 514.259 233.334 514.504 235.047C514.83 236.76 510.75 244.593 506.834 247.449C506.834 247.449 519.888 240.187 538.736 238.311C557.583 236.434 570.148 238.8 570.637 240.595C571.127 242.472 546.731 257.892 532.045 263.277C532.045 263.277 557.909 262.869 559.622 267.601C561.336 272.252 528.292 281.308 505.61 287.428C482.928 293.628 471.995 300.319 470.772 296.484C469.466 292.568 468.405 282.124 471.343 274.455Z" fill="url(#paint12_linear_596_247)"/>
<path d="M446.05 320.553C445.316 319.737 450.619 306.683 455.107 293.873C459.594 281.063 469.874 257.81 476.238 258.055C482.521 258.3 480.236 271.844 476.238 277.963C476.238 277.963 494.433 258.3 505.121 260.503C515.809 262.787 500.062 277.8 492.23 283.593C492.23 283.593 518.828 278.534 519.236 283.266C519.644 287.917 510.179 292.404 492.638 298.85C475.096 305.296 449.722 324.551 446.05 320.553Z" fill="url(#paint13_linear_596_247)"/>
<path d="M446.05 320.798C445.642 320.308 448.661 312.639 451.353 305.051C453.964 297.545 460.083 283.838 463.755 283.919C467.508 284.082 466.121 292.078 463.755 295.668C463.755 295.668 474.525 284.082 480.807 285.469C487.089 286.775 477.87 295.586 473.219 299.013C473.219 299.013 488.884 296.076 489.129 298.85C489.374 301.542 483.744 304.153 473.464 307.988C463.102 311.823 448.171 323.164 446.05 320.798Z" fill="url(#paint14_linear_596_247)"/>
<path d="M500.307 196.782C484.805 223.788 407.703 201.84 389.345 188.459C323.421 140.648 225.106 195.721 246.319 262.38C265.982 323.898 317.873 334.994 372.13 337.36C426.469 339.808 440.583 320.308 446.621 316.229C452.659 312.149 455.596 316.718 451.272 321.042C446.948 325.367 391.14 372.933 290.296 355.31C189.37 337.605 152.41 240.106 169.707 157.048C184.556 85.4119 244.198 24.2199 347.572 24.9542C450.945 25.6885 503.407 116.661 510.587 137.058C515.809 151.907 515.809 169.775 500.307 196.782Z" fill="url(#paint15_linear_596_247)"/>
<path d="M220.618 165.37C219.884 150.765 222.821 116.824 265.574 112.173C304.982 107.931 332.477 139.016 331.825 170.51C288.174 171.081 250.072 185.277 246.074 222.809C248.44 207.878 220.618 197.924 220.618 165.37Z" fill="url(#paint16_linear_596_247)"/>
<path d="M213.683 165.37C212.949 150.765 221.353 116.824 264.106 112.173C306.859 107.523 331.335 144.564 325.135 178.424C318.852 212.284 301.066 223.461 282.626 226.48C282.626 226.48 304.656 226.48 326.032 226.48C347.408 226.48 350.101 226.48 354.425 226.48C358.749 226.48 368.867 220.361 378.82 226.48C388.774 232.681 391.14 240.595 391.14 244.675C391.14 248.754 385.837 252.099 370.009 252.099C354.18 252.099 280.179 252.099 267.451 252.099C254.723 252.099 246.319 249.652 243.708 237.821C241.016 225.991 213.683 197.924 213.683 165.37Z" fill="url(#paint17_linear_596_247)"/>
<path d="M413.333 182.748C413.333 182.748 454.209 183.972 479.012 167.98C503.897 151.907 506.426 129.47 506.426 129.47C506.426 129.47 522.826 152.315 518.501 193.518C514.177 234.802 490.924 250.06 455.841 250.304C420.676 250.467 407.703 239.453 400.686 233.334C386.653 221.095 379.636 200.208 385.347 192.131C391.14 183.972 401.584 182.993 413.333 182.748Z" fill="url(#paint18_linear_596_247)"/>
<path d="M365.685 180.464C365.685 180.464 385.429 165.941 407.458 151.581C429.895 136.976 446.948 128.083 448.416 129.633C449.885 131.265 412.762 174.263 409.661 177.363C406.642 180.464 365.685 180.464 365.685 180.464Z" fill="url(#paint19_linear_596_247)"/>
<path d="M340.636 205.185C340.636 205.185 335.986 200.535 343.002 194.497C352.14 186.583 374.088 175.487 392.69 168.225C411.293 160.882 467.508 141.219 468.813 143.422C470.119 145.707 444.255 171.081 424.674 178.016C424.674 178.016 440.094 178.913 439.686 182.014C439.196 185.114 429.814 196.21 421.492 201.922C421.492 201.922 431.609 201.922 432.098 203.39C432.588 204.859 428.1 217.75 415.862 225.583C415.862 225.583 423.45 235.7 421.492 236.76C419.615 237.821 407.866 235.944 407.866 235.944C407.866 235.944 418.554 248.509 417.902 249.815C417.33 251.202 398.565 253.486 381.431 247.367C381.431 247.367 384.613 253.323 383.308 254.139C382.002 255.036 374.333 252.344 366.5 247.775C364.624 247.204 354.67 246.877 345.287 246.877C335.823 246.877 324.563 246.877 322.605 246.877C320.565 246.877 310.122 252.344 308.98 252.018C307.837 251.691 305.227 244.103 306.206 236.597C307.103 229.091 309.224 221.177 319.749 214.976C330.356 208.694 340.636 205.185 340.636 205.185Z" fill="url(#paint20_linear_596_247)"/>
<path d="M318.689 226.562C317.547 226.806 316.405 229.173 316.079 229.009C315.752 228.765 315.834 225.256 317.139 224.44C318.526 223.706 319.995 223.869 321.464 225.256C322.279 226.154 319.75 226.317 318.689 226.562Z" fill="#6E192B"/>
<path d="M349.938 209.673C349.938 209.673 353.201 207.551 357.934 207.715C362.666 207.878 367.398 209.183 371.396 206.572C375.475 203.88 374.741 201.351 378.821 200.616C378.821 200.616 377.434 202.248 376.455 204.288C375.394 206.246 374.17 209.836 367.316 210.652C360.3 211.549 357.607 209.265 355.16 209.346C352.794 209.428 348.714 210.325 349.938 209.673Z" fill="#6E192B"/>
<path d="M428.834 335.973C428.834 335.973 441.072 328.467 447.11 323.245C451.679 319.247 451.679 316.555 452.495 316.065C453.392 315.657 476.727 313.618 476.156 316.8C475.585 319.9 457.961 335.973 428.834 335.973Z" fill="url(#paint21_linear_596_247)"/>
<path d="M399.789 348.946C399.789 348.946 413.333 343.969 420.268 340.134C425.571 337.116 430.304 334.668 431.283 334.341C432.18 334.097 451.272 336.626 450.048 339.563C448.824 342.5 428.264 354.739 399.789 348.946Z" fill="url(#paint22_linear_596_247)"/>
<path d="M361.769 356.942C361.769 356.942 379.555 354.249 389.019 351.23C396.281 348.946 402.726 347.069 403.95 346.988C405.174 346.825 427.856 354.739 425.653 358.084C423.45 361.347 395.22 371.138 361.769 356.942Z" fill="url(#paint23_linear_596_247)"/>
<path d="M316.731 357.023C316.731 357.023 337.21 358.166 348.47 357.023C357.037 356.126 364.706 355.555 366.093 355.718C367.398 355.881 390.896 369.996 387.714 373.178C384.451 376.36 350.673 380.684 316.731 357.023Z" fill="url(#paint24_linear_596_247)"/>
<path d="M262.556 348.864C262.556 348.864 287.114 354.004 300.984 354.657C311.509 355.147 320.811 355.799 322.442 356.289C324.074 356.697 349.938 377.992 345.451 381.255C340.963 384.601 299.353 383.703 262.556 348.864Z" fill="url(#paint25_linear_596_247)"/>
<path d="M217.354 320.553C217.354 320.553 238.568 333.933 251.296 339.4C261.086 343.561 269.572 347.477 270.877 348.456C272.264 349.435 289.072 378.4 283.687 379.95C278.383 381.418 239.71 366.08 217.354 320.553Z" fill="url(#paint26_linear_596_247)"/>
<path d="M183.74 272.333C183.74 272.333 197.366 293.302 206.667 303.664C213.765 311.496 219.884 318.595 220.7 320.063C221.516 321.532 224.617 354.82 219.15 354.004C213.684 353.107 184.964 323 183.74 272.333Z" fill="url(#paint27_linear_596_247)"/>
<path d="M171.257 215.221C171.257 215.221 175.418 239.942 179.823 253.078C183.25 263.114 185.943 272.007 186.106 273.72C186.351 275.352 175.826 307.172 171.175 304.235C166.524 301.216 152.165 262.135 171.257 215.221Z" fill="url(#paint28_linear_596_247)"/>
<path d="M173.297 158.271C173.297 158.271 170.93 183.156 171.91 197.026C172.644 207.633 172.97 216.934 172.725 218.566C172.481 220.279 154.205 248.346 150.451 244.267C146.698 240.187 142.864 198.74 173.297 158.271Z" fill="url(#paint29_linear_596_247)"/>
<path d="M196.06 102.056C196.06 102.056 185.209 126.125 181.374 140.24C178.437 151.01 175.581 160.474 174.765 162.024C173.949 163.656 146.127 185.359 143.761 179.974C141.395 174.671 151.839 132 196.06 102.056Z" fill="url(#paint30_linear_596_247)"/>
<path d="M237.915 56.6108C237.915 56.6108 219.068 75.1317 210.42 86.9621C203.811 95.937 197.692 103.688 196.386 104.83C195.081 106.054 161.221 116.253 160.976 110.378C160.732 104.585 185.861 68.5229 237.915 56.6108Z" fill="url(#paint31_linear_596_247)"/>
<path d="M295.109 32.7867C295.109 32.7867 270.143 41.5984 257.334 48.6151C247.543 54 238.813 58.4058 237.099 58.977C235.386 59.4665 200.384 54.4079 202.669 49.023C204.872 43.6381 242.892 21.609 295.109 32.7867Z" fill="url(#paint32_linear_596_247)"/>
<path d="M355.159 28.2994C355.159 28.2994 328.724 28.6258 314.364 31.2366C303.35 33.1132 293.559 34.5818 291.846 34.5002C290.051 34.4186 258.557 18.4271 262.392 14.0213C266.227 9.61542 309.224 0.966941 355.159 28.2994Z" fill="url(#paint33_linear_596_247)"/>
<path d="M415.535 42.9039C415.535 42.9039 390.324 35.1529 375.883 33.1131C364.786 31.5629 355.077 29.8495 353.445 29.2784C351.732 28.6257 326.684 3.74092 331.743 0.722106C336.72 -2.2967 380.37 2.76185 415.535 42.9039Z" fill="url(#paint34_linear_596_247)"/>
<path d="M466.039 76.274C466.039 76.274 444.989 60.364 432.016 53.5105C422.144 48.2888 413.577 43.475 412.272 42.3327C410.885 41.1089 395.791 9.20742 401.502 8.06516C407.295 7.0045 446.621 26.5044 466.039 76.274Z" fill="url(#paint35_linear_596_247)"/>
<path d="M493.208 131.428C493.208 131.428 483.009 107.115 475.258 94.6316C469.302 85.1672 464.407 76.6819 463.754 75.0501C463.183 73.3368 466.202 38.1717 471.75 40.0483C477.216 42.0064 501.449 78.6401 493.208 131.428Z" fill="url(#paint36_linear_596_247)"/>
<path d="M493.209 127.594C493.698 122.943 502.673 95.6923 506.426 94.7132C510.179 93.7341 516.951 111.194 511.974 133.713C507.487 153.539 482.847 165.37 482.847 165.37C496.554 148.97 492.719 132.326 493.209 127.594Z" fill="url(#paint37_linear_596_247)"/>
<path d="M243.708 237.821L244.36 254.302L229.185 211.957C237.262 222.401 243.708 237.821 243.708 237.821Z" fill="url(#paint38_linear_596_247)"/>
<path d="M492.149 218.566C492.883 220.932 490.109 223.869 485.948 225.093C481.787 226.398 477.789 225.501 477.055 223.216C476.402 220.85 479.176 217.913 483.337 216.689C487.499 215.384 491.496 216.281 492.149 218.566Z" fill="url(#paint39_linear_596_247)"/>
<path d="M489.375 209.346C490.109 211.712 487.254 214.65 483.093 215.955C478.931 217.179 475.015 216.363 474.281 213.997C473.547 211.631 476.321 208.694 480.482 207.47C484.724 206.164 488.641 207.062 489.375 209.346Z" fill="url(#paint40_linear_596_247)"/>
<path d="M486.519 200.208C487.254 202.493 484.479 205.43 480.318 206.735C476.157 207.959 472.159 207.143 471.425 204.777C470.772 202.411 473.547 199.474 477.708 198.25C481.869 196.945 485.866 197.842 486.519 200.127V200.208Z" fill="url(#paint41_linear_596_247)"/>
<path d="M483.745 190.989C484.479 193.273 481.624 196.21 477.463 197.516C473.302 198.74 469.385 197.924 468.651 195.558C467.917 193.192 470.691 190.336 474.933 189.031C479.094 187.725 483.011 188.623 483.745 190.989Z" fill="url(#paint42_linear_596_247)"/>
<path d="M477.707 219.137C478.442 221.503 475.668 224.44 471.506 225.664C467.264 226.97 463.348 226.072 462.613 223.788C461.879 221.422 464.735 218.484 468.896 217.179C473.057 215.955 476.973 216.771 477.707 219.137Z" fill="url(#paint43_linear_596_247)"/>
<path d="M474.934 209.918C475.586 212.284 472.812 215.221 468.651 216.445C464.49 217.75 460.492 216.853 459.84 214.568C459.105 212.202 461.879 209.265 466.04 207.959C470.201 206.736 474.199 207.551 474.934 209.918Z" fill="url(#paint44_linear_596_247)"/>
<path d="M472.077 200.698C472.812 203.064 470.038 206.001 465.877 207.225C461.634 208.53 457.718 207.633 456.983 205.348C456.249 202.982 459.105 200.045 463.266 198.821C467.427 197.516 471.343 198.413 472.077 200.698Z" fill="url(#paint45_linear_596_247)"/>
<path d="M463.999 219.79C464.734 222.156 461.96 225.093 457.799 226.399C453.556 227.622 449.64 226.806 448.905 224.44C448.171 222.074 451.027 219.137 455.188 217.913C459.349 216.608 463.265 217.505 463.999 219.79Z" fill="url(#paint46_linear_596_247)"/>
<path d="M461.226 210.652C461.878 212.936 459.104 215.873 454.943 217.179C450.782 218.403 446.866 217.587 446.131 215.221C445.397 212.855 448.171 209.917 452.332 208.694C456.493 207.388 460.491 208.286 461.226 210.652Z" fill="url(#paint47_linear_596_247)"/>
<path d="M391.386 72.5207C395.547 73.8261 398.402 76.7634 397.668 79.0479C396.934 81.414 393.017 82.3115 388.775 81.006C384.614 79.7006 381.84 76.845 382.574 74.4789C383.308 72.1128 387.224 71.2969 391.386 72.5207Z" fill="url(#paint48_linear_596_247)"/>
<path d="M394.241 63.301C398.402 64.6065 401.176 67.5437 400.442 69.8282C399.789 72.1943 395.791 73.0918 391.63 71.7863C387.469 70.5625 384.695 67.6253 385.348 65.2592C386.082 62.8931 390.08 62.0772 394.241 63.301Z" fill="url(#paint49_linear_596_247)"/>
<path d="M397.015 54.0815C401.176 55.3869 404.032 58.3241 403.298 60.6902C402.564 62.9747 398.647 63.8722 394.405 62.5668C390.243 61.343 387.469 58.4057 388.204 56.0396C388.938 53.6735 392.854 52.8577 397.015 54.0815Z" fill="url(#paint50_linear_596_247)"/>
<path d="M399.871 44.9435C404.032 46.1673 406.806 49.1045 406.072 51.4706C405.419 53.7551 401.421 54.6526 397.26 53.3472C393.099 52.1233 390.325 49.1861 390.978 46.82C391.712 44.5355 395.71 43.638 399.871 44.9435Z" fill="url(#paint51_linear_596_247)"/>
<path d="M405.826 73.0918C410.069 74.3157 412.843 77.2529 412.109 79.619C411.374 81.9851 407.458 82.801 403.297 81.5771C399.136 80.2717 396.28 77.3345 397.015 75.05C397.749 72.6839 401.665 71.7864 405.826 73.0918Z" fill="url(#paint52_linear_596_247)"/>
<path d="M408.682 63.8723C412.843 65.1777 415.618 68.1149 414.965 70.3994C414.23 72.7655 410.233 73.663 406.072 72.3576C401.91 71.0522 399.136 68.1149 399.871 65.8304C400.523 63.4643 404.521 62.5669 408.682 63.8723Z" fill="url(#paint53_linear_596_247)"/>
<path d="M411.456 54.6526C415.699 55.958 418.473 58.8953 417.739 61.1798C417.004 63.5459 413.088 64.4433 408.927 63.1379C404.766 61.8325 401.91 58.9768 402.645 56.6108C403.379 54.2447 407.295 53.4288 411.456 54.6526Z" fill="url(#paint54_linear_596_247)"/>
<path d="M419.533 73.7446C423.694 75.05 426.55 77.9872 425.816 80.3533C425.081 82.6378 421.165 83.5353 417.004 82.2299C412.843 81.0061 409.987 78.0688 410.722 75.7027C411.456 73.3367 415.372 72.5207 419.533 73.7446Z" fill="url(#paint55_linear_596_247)"/>
<path d="M422.389 64.5249C426.55 65.8304 429.325 68.7676 428.59 71.1337C427.938 73.4182 423.94 74.3157 419.779 73.0102C415.618 71.7864 412.843 68.8492 413.578 66.4831C414.23 64.117 418.228 63.3011 422.389 64.5249Z" fill="url(#paint56_linear_596_247)"/>
<path d="M342.677 133.387C347.001 133.794 350.346 136.079 350.102 138.527C349.857 140.974 346.185 142.606 341.861 142.198C337.537 141.79 334.192 139.506 334.436 137.058C334.6 134.61 338.353 132.979 342.677 133.387Z" fill="url(#paint57_linear_596_247)"/>
<path d="M343.574 123.841C347.899 124.249 351.244 126.533 350.999 128.981C350.754 131.428 347.083 133.06 342.759 132.652C338.434 132.244 335.089 129.96 335.334 127.512C335.497 125.064 339.25 123.433 343.574 123.841Z" fill="url(#paint58_linear_596_247)"/>
<path d="M344.472 114.213C348.796 114.621 352.141 116.905 351.897 119.353C351.652 121.801 347.98 123.433 343.656 123.025C339.332 122.617 335.987 120.332 336.231 117.885C336.395 115.437 340.148 113.805 344.472 114.213Z" fill="url(#paint59_linear_596_247)"/>
<path d="M345.369 104.667C349.694 105.075 353.039 107.36 352.794 109.807C352.549 112.255 348.878 113.887 344.553 113.479C340.229 113.071 336.884 110.786 337.129 108.339C337.292 105.891 341.045 104.259 345.369 104.667Z" fill="url(#paint60_linear_596_247)"/>
<path d="M356.954 131.02C361.279 131.428 364.624 133.713 364.379 136.161C364.134 138.608 360.463 140.24 356.138 139.832C351.814 139.424 348.469 137.14 348.714 134.692C348.877 132.244 352.63 130.613 356.954 131.02Z" fill="url(#paint61_linear_596_247)"/>
<path d="M357.852 121.393C362.176 121.801 365.521 124.167 365.276 126.615C365.032 128.981 361.36 130.694 357.036 130.286C352.712 129.878 349.366 127.512 349.611 125.146C349.774 122.698 353.528 120.985 357.852 121.393Z" fill="url(#paint62_linear_596_247)"/>
<path d="M358.749 111.847C363.073 112.255 366.419 114.539 366.174 116.987C365.929 119.435 362.258 121.067 357.933 120.659C353.609 120.251 350.264 117.966 350.509 115.518C350.672 113.071 354.425 111.439 358.749 111.847Z" fill="url(#paint63_linear_596_247)"/>
<path d="M370.499 128.899C374.823 129.307 378.169 131.673 377.924 134.039C377.761 136.487 374.008 138.2 369.683 137.792C365.359 137.384 362.014 135.018 362.259 132.571C362.503 130.205 366.175 128.491 370.499 128.899Z" fill="url(#paint64_linear_596_247)"/>
<path d="M371.397 119.353C375.721 119.761 379.066 122.046 378.821 124.493C378.658 126.941 374.905 128.573 370.581 128.165C366.257 127.757 362.911 125.472 363.156 123.025C363.401 120.577 367.072 118.945 371.397 119.353Z" fill="url(#paint65_linear_596_247)"/>
<path d="M250.726 93.5709C254.398 91.1232 258.396 90.8784 259.783 92.9182C261.088 94.9579 259.293 98.5478 255.622 100.914C252.032 103.362 247.952 103.606 246.647 101.567C245.26 99.5269 247.136 95.937 250.726 93.5709Z" fill="url(#paint66_linear_596_247)"/>
<path d="M245.422 85.4936C249.094 83.1275 253.092 82.8011 254.479 84.8409C255.784 86.8806 253.989 90.4705 250.318 92.9182C246.728 95.2843 242.648 95.6107 241.343 93.5709C239.956 91.5312 241.833 87.9413 245.422 85.4936Z" fill="url(#paint67_linear_596_247)"/>
<path d="M240.12 77.4978C243.71 75.0501 247.789 74.8054 249.176 76.8451C250.482 78.8848 248.605 82.4748 245.015 84.9225C241.344 87.2886 237.346 87.6149 235.959 85.5752C234.653 83.5354 236.448 79.8639 240.12 77.4978Z" fill="url(#paint68_linear_596_247)"/>
<path d="M234.816 69.502C238.406 67.0544 242.485 66.728 243.791 68.7677C245.178 70.8075 243.301 74.479 239.711 76.8451C236.04 79.2928 232.042 79.5375 230.655 77.4978C229.349 75.4581 231.144 71.8681 234.816 69.502Z" fill="url(#paint69_linear_596_247)"/>
<path d="M260.353 82.7195C264.025 80.3534 268.023 80.0271 269.41 82.0668C270.715 84.1066 268.92 87.6965 265.249 90.1442C261.659 92.5103 257.579 92.8366 256.274 90.7969C254.887 88.7572 256.763 85.1672 260.353 82.7195Z" fill="url(#paint70_linear_596_247)"/>
<path d="M255.05 74.7238C258.722 72.2761 262.72 72.0313 264.107 74.0711C265.412 76.1108 263.617 79.7007 259.946 82.0668C256.356 84.5145 252.276 84.8409 250.889 82.8011C249.584 80.7614 251.379 77.0899 255.05 74.7238Z" fill="url(#paint71_linear_596_247)"/>
<path d="M249.747 66.6464C253.337 64.2803 257.416 63.9539 258.721 65.9937C260.109 68.0334 258.232 71.705 254.642 74.0711C250.97 76.5187 246.973 76.7635 245.586 74.7238C244.28 72.684 246.075 69.0941 249.747 66.6464Z" fill="url(#paint72_linear_596_247)"/>
<path d="M269.654 72.6024C273.243 70.2363 277.323 69.91 278.628 71.9497C280.015 73.9894 278.139 77.5794 274.549 80.027C270.877 82.3931 266.88 82.7195 265.492 80.6797C264.105 78.64 265.982 75.0501 269.654 72.6024Z" fill="url(#paint73_linear_596_247)"/>
<path d="M264.269 64.6066C267.941 62.1589 271.939 61.9141 273.326 63.9539C274.713 65.9936 272.836 69.5836 269.165 71.9496C265.575 74.3973 261.495 74.6421 260.19 72.6024C258.803 70.5626 260.679 66.9727 264.269 64.6066Z" fill="url(#paint74_linear_596_247)"/>
<path d="M225.27 188.623C225.515 184.217 227.718 180.79 230.166 180.953C232.613 181.116 234.327 184.788 234.082 189.112C233.837 193.436 231.634 196.863 229.187 196.7C226.739 196.618 225.026 192.947 225.27 188.623Z" fill="url(#paint75_linear_596_247)"/>
<path d="M215.642 188.051C215.887 183.646 218.09 180.3 220.538 180.382C222.986 180.545 224.699 184.217 224.454 188.541C224.209 192.865 222.006 196.292 219.559 196.129C217.193 196.047 215.398 192.376 215.642 188.051Z" fill="url(#paint76_linear_596_247)"/>
<path d="M206.015 187.48C206.259 183.156 208.462 179.729 210.91 179.892C213.358 179.974 215.153 183.646 214.908 187.97C214.581 192.376 212.46 195.721 210.012 195.639C207.565 195.476 205.77 191.805 206.015 187.48Z" fill="url(#paint77_linear_596_247)"/>
<path d="M196.388 186.909C196.632 182.585 198.835 179.158 201.283 179.321C203.731 179.403 205.526 183.075 205.281 187.399C205.036 191.805 202.833 195.15 200.385 195.068C197.938 194.905 196.143 191.233 196.388 186.909Z" fill="url(#paint78_linear_596_247)"/>
<path d="M222.332 174.426C222.658 170.02 224.78 166.675 227.227 166.757C229.675 166.92 231.47 170.591 231.225 174.916C230.98 179.24 228.777 182.667 226.33 182.503C223.882 182.422 222.087 178.75 222.332 174.426Z" fill="url(#paint79_linear_596_247)"/>
<path d="M212.786 173.855C213.031 169.531 215.152 166.104 217.6 166.267C220.048 166.349 221.843 170.02 221.598 174.344C221.353 178.75 219.15 182.095 216.703 182.014C214.255 181.851 212.46 178.179 212.786 173.855Z" fill="url(#paint80_linear_596_247)"/>
<path d="M203.159 173.284C203.404 168.959 205.607 165.533 208.054 165.696C210.502 165.777 212.215 169.449 211.971 173.773C211.726 178.179 209.523 181.606 207.075 181.443C204.628 181.279 202.914 177.608 203.159 173.284Z" fill="url(#paint81_linear_596_247)"/>
<path d="M219.804 160.964C220.048 156.558 222.251 153.131 224.699 153.294C227.147 153.458 228.942 157.129 228.615 161.453C228.37 165.778 226.249 169.204 223.801 169.041C221.354 168.96 219.559 165.288 219.804 160.964Z" fill="url(#paint82_linear_596_247)"/>
<path d="M210.177 160.393C210.421 155.987 212.624 152.642 215.072 152.723C217.52 152.886 219.315 156.558 219.07 160.882C218.825 165.206 216.622 168.633 214.175 168.47C211.727 168.388 209.932 164.717 210.177 160.393Z" fill="url(#paint83_linear_596_247)"/>
<path d="M265.737 314.434C262.882 312.557 261.413 309.701 262.474 308.151C263.535 306.601 266.716 306.764 269.572 308.722C272.346 310.599 273.815 313.373 272.754 315.005C271.693 316.555 268.511 316.31 265.737 314.434Z" fill="url(#paint84_linear_596_247)"/>
<path d="M261.576 320.635C258.721 318.758 257.252 315.984 258.313 314.352C259.373 312.802 262.555 313.047 265.411 314.923C268.185 316.8 269.654 319.655 268.593 321.206C267.532 322.756 264.35 322.593 261.576 320.635Z" fill="url(#paint85_linear_596_247)"/>
<path d="M257.415 326.917C254.56 325.04 253.091 322.185 254.152 320.634C255.212 319.003 258.394 319.247 261.25 321.124C264.024 323.082 265.493 325.856 264.432 327.406C263.371 329.038 260.189 328.793 257.415 326.917Z" fill="url(#paint86_linear_596_247)"/>
<path d="M253.254 333.118C250.398 331.241 248.93 328.467 249.99 326.835C251.051 325.285 254.233 325.53 257.089 327.406C259.863 329.283 261.331 332.139 260.271 333.689C259.21 335.239 256.028 334.994 253.254 333.118Z" fill="url(#paint87_linear_596_247)"/>
<path d="M255.048 310.762C252.192 308.886 250.805 306.111 251.866 304.48C252.927 302.929 256.027 303.174 258.883 305.051C261.657 306.927 263.125 309.701 262.065 311.333C261.004 312.883 257.822 312.639 255.048 310.762Z" fill="url(#paint88_linear_596_247)"/>
<path d="M250.887 317.045C248.031 315.168 246.644 312.312 247.705 310.762C248.766 309.13 251.866 309.375 254.722 311.252C257.496 313.128 258.964 315.984 257.904 317.534C256.843 319.166 253.743 318.921 250.887 317.045Z" fill="url(#paint89_linear_596_247)"/>
<path d="M246.726 323.245C243.87 321.369 242.483 318.595 243.544 316.963C244.605 315.413 247.705 315.657 250.561 317.534C253.335 319.41 254.803 322.185 253.743 323.816C252.682 325.367 249.581 325.122 246.726 323.245Z" fill="url(#paint90_linear_596_247)"/>
<path d="M245.013 307.172C242.157 305.296 240.689 302.522 241.749 300.89C242.81 299.34 245.992 299.584 248.766 301.461C251.622 303.337 253.09 306.111 252.03 307.743C250.969 309.293 247.787 309.049 245.013 307.172Z" fill="url(#paint91_linear_596_247)"/>
<path d="M240.852 313.455C237.996 311.578 236.527 308.722 237.588 307.172C238.649 305.54 241.831 305.785 244.605 307.662C247.46 309.62 248.929 312.394 247.868 313.944C246.808 315.576 243.626 315.331 240.852 313.455Z" fill="url(#paint92_linear_596_247)"/>
<path d="M477.136 257.239C475.586 258.708 480.481 232.355 488.151 212.12C495.902 191.886 500.878 191.07 501.939 198.25C503.081 205.348 498.839 237.168 477.136 257.239Z" fill="url(#paint93_linear_596_247)"/>
<path d="M475.259 255.934C474.525 257.974 466.692 232.355 464.163 210.897C461.634 189.357 465.713 186.338 469.956 192.213C474.28 198.005 485.131 228.112 475.259 255.934Z" fill="url(#paint94_linear_596_247)"/>
<path d="M472.975 257.239C473.219 258.79 459.186 245.164 450.048 232.355C440.91 219.463 442.46 216.118 447.274 218.403C452.006 220.606 469.548 236.026 472.975 257.239Z" fill="url(#paint95_linear_596_247)"/>
<path d="M133.481 311.904C132.175 313.618 131.93 286.856 135.52 265.562C139.192 244.267 143.924 242.553 146.372 249.325C148.819 256.097 150.777 287.999 133.481 311.904Z" fill="url(#paint96_linear_596_247)"/>
<path d="M130.217 306.438C129.89 308.559 117.325 284.98 110.635 264.338C104.026 243.777 107.453 240.024 112.756 244.919C118.06 249.815 134.541 277.229 130.217 306.438Z" fill="url(#paint97_linear_596_247)"/>
<path d="M129.156 310.273C129.646 311.741 113.328 301.135 101.905 290.283C90.483 279.432 91.2989 275.923 96.439 277.147C101.498 278.371 121.65 290.12 129.156 310.273Z" fill="url(#paint98_linear_596_247)"/>
<path d="M657.937 312.557C656.55 313.781 660.792 291.181 667.401 273.802C674.01 256.423 678.334 255.771 679.231 261.89C680.211 268.009 676.539 295.26 657.937 312.557Z" fill="url(#paint99_linear_596_247)"/>
<path d="M656.143 307.335C655.49 309.13 648.799 287.101 646.678 268.662C644.475 250.141 647.984 247.612 651.655 252.589C655.327 257.566 664.628 283.43 656.143 307.335Z" fill="url(#paint100_linear_596_247)"/>
<path d="M654.51 310.436C654.755 311.741 642.761 300.074 634.929 289.059C627.096 277.963 628.402 275.107 632.481 277.066C636.561 278.942 651.655 292.16 654.51 310.436Z" fill="url(#paint101_linear_596_247)"/>
<path d="M534.003 340.787C533.105 341.603 535.961 326.182 540.448 314.352C545.017 302.522 547.873 302.032 548.526 306.193C549.178 310.436 546.731 329.038 534.003 340.787Z" fill="url(#paint102_linear_596_247)"/>
<path d="M532.778 337.279C532.37 338.421 527.801 323.408 526.333 310.844C524.864 298.197 527.23 296.484 529.678 299.911C532.207 303.337 538.571 320.961 532.778 337.279Z" fill="url(#paint103_linear_596_247)"/>
<path d="M531.718 339.318C531.799 340.216 523.64 332.302 518.337 324.714C512.952 317.208 513.85 315.249 516.624 316.555C519.479 317.86 529.678 326.917 531.718 339.318Z" fill="url(#paint104_linear_596_247)"/>
<path d="M611.921 394.962C610.697 396.105 614.45 375.87 620.406 360.287C626.362 344.703 630.197 344.132 631.013 349.599C631.828 355.065 628.565 379.542 611.921 394.962Z" fill="url(#paint105_linear_596_247)"/>
<path d="M610.288 390.312C609.717 391.862 603.761 372.199 601.803 355.636C599.845 339.074 602.945 336.789 606.29 341.276C609.554 345.764 617.957 368.935 610.288 390.312Z" fill="url(#paint106_linear_596_247)"/>
<path d="M608.901 393.086C609.065 394.31 598.295 383.785 591.278 373.912C584.261 364.04 585.485 361.429 589.157 363.142C592.828 364.856 606.29 376.768 608.901 393.086Z" fill="url(#paint107_linear_596_247)"/>
<path d="M29.8622 336.707C28.7199 337.768 32.3099 318.595 37.9395 303.909C43.4876 289.304 47.0776 288.733 47.8934 293.873C48.7093 299.095 45.6089 322.103 29.8622 336.707Z" fill="url(#paint108_linear_596_247)"/>
<path d="M28.394 332.302C27.8228 333.77 22.1932 315.168 20.3166 299.584C18.5217 284.001 21.4589 281.798 24.5593 286.04C27.6597 290.283 35.5738 312.067 28.394 332.302Z" fill="url(#paint109_linear_596_247)"/>
<path d="M27.0065 334.913C27.1697 336.055 17.0526 326.101 10.4438 316.8C3.83508 307.498 4.89575 305.051 8.40409 306.683C11.8309 308.314 24.5588 319.492 27.0065 334.913Z" fill="url(#paint110_linear_596_247)"/>
<path d="M130.298 392.841C129.401 393.657 132.257 378.237 136.826 366.406C141.313 354.576 144.25 354.086 144.903 358.329C145.474 362.49 143.026 381.092 130.298 392.841Z" fill="url(#paint111_linear_596_247)"/>
<path d="M129.075 389.333C128.667 390.475 124.098 375.462 122.63 362.898C121.161 350.333 123.527 348.538 126.056 351.965C128.504 355.391 134.95 373.015 129.075 389.333Z" fill="url(#paint112_linear_596_247)"/>
<path d="M128.015 391.372C128.178 392.27 120.019 384.356 114.634 376.768C109.249 369.262 110.147 367.304 113.002 368.609C115.776 369.914 126.056 378.971 128.015 391.372Z" fill="url(#paint113_linear_596_247)"/>
<path d="M48.9545 334.505C48.9545 337.523 44.0591 338.013 37.9399 338.013C31.8207 338.013 26.8438 337.523 26.8438 334.505C26.8438 331.404 31.8207 326.917 37.9399 326.917C44.0591 326.917 48.9545 331.404 48.9545 334.505Z" fill="url(#paint114_linear_596_247)"/>
<path d="M35.2473 338.176C35.2473 342.256 28.6386 342.908 20.4796 342.908C12.3207 342.908 5.71191 342.256 5.71191 338.176C5.71191 334.097 12.3207 328.141 20.4796 328.141C28.6386 328.141 35.2473 334.097 35.2473 338.176Z" fill="url(#paint115_linear_596_247)"/>
<path d="M154.449 392.596C154.449 395.615 149.472 396.105 143.352 396.105C137.233 396.105 132.338 395.615 132.338 392.596C132.338 389.496 137.233 385.008 143.352 385.008C149.472 385.008 154.449 389.496 154.449 392.596Z" fill="url(#paint116_linear_596_247)"/>
<path d="M140.741 396.268C140.741 400.347 134.133 401 125.974 401C117.815 401 111.206 400.347 111.206 396.268C111.206 392.188 117.815 386.151 125.974 386.151C134.133 386.151 140.741 392.188 140.741 396.268Z" fill="url(#paint117_linear_596_247)"/>
<path d="M552.116 340.379C552.116 343.398 547.139 343.887 541.019 343.887C534.9 343.887 530.005 343.398 530.005 340.379C530.005 337.279 534.9 332.791 541.019 332.791C547.139 332.791 552.116 337.279 552.116 340.379Z" fill="url(#paint118_linear_596_247)"/>
<path d="M538.408 344.132C538.408 348.212 531.8 348.783 523.641 348.783C515.482 348.783 508.873 348.212 508.873 344.132C508.873 340.053 515.482 334.015 523.641 334.015C531.8 334.015 538.408 340.053 538.408 344.132Z" fill="url(#paint119_linear_596_247)"/>
<path d="M674.744 315.576C674.744 319.9 667.728 320.553 659.079 320.553C650.431 320.553 643.414 319.9 643.414 315.576C643.414 311.252 650.431 304.888 659.079 304.888C667.728 304.888 674.744 311.252 674.744 315.576Z" fill="url(#paint120_linear_596_247)"/>
<path d="M655.326 320.879C655.326 326.59 646.025 327.488 634.44 327.488C622.854 327.488 613.553 326.59 613.553 320.879C613.553 315.086 622.854 306.601 634.44 306.601C646.025 306.601 655.326 315.086 655.326 320.879Z" fill="url(#paint121_linear_596_247)"/>
<defs>
<linearGradient id="paint0_linear_596_247" x1="217.517" y1="42.3327" x2="217.517" y2="286.53" gradientUnits="userSpaceOnUse">
<stop stop-color="#F15523"/>
<stop offset="1" stop-color="#F49C6D"/>
</linearGradient>
<linearGradient id="paint1_linear_596_247" x1="691.225" y1="42.3327" x2="691.225" y2="286.53" gradientUnits="userSpaceOnUse">
<stop stop-color="#F15523"/>
<stop offset="1" stop-color="#F49C6D"/>
</linearGradient>
<linearGradient id="paint2_linear_596_247" x1="226.329" y1="224.44" x2="347.734" y2="224.44" gradientUnits="userSpaceOnUse">
<stop stop-color="#AFB0B0"/>
<stop offset="1" stop-color="#676969"/>
</linearGradient>
<linearGradient id="paint3_linear_596_247" x1="288.012" y1="300.4" x2="284.177" y2="260.258" gradientUnits="userSpaceOnUse">
<stop stop-color="#4C8D66"/>
<stop offset="1" stop-color="#ABD47C"/>
</linearGradient>
<linearGradient id="paint4_linear_596_247" x1="283.933" y1="299.829" x2="262.475" y2="266.704" gradientUnits="userSpaceOnUse">
<stop stop-color="#4C8D66"/>
<stop offset="1" stop-color="#ABD47C"/>
</linearGradient>
<linearGradient id="paint5_linear_596_247" x1="285.319" y1="306.111" x2="259.211" y2="292.078" gradientUnits="userSpaceOnUse">
<stop stop-color="#4C8D66"/>
<stop offset="1" stop-color="#ABD47C"/>
</linearGradient>
<linearGradient id="paint6_linear_596_247" x1="351.488" y1="222.319" x2="472.975" y2="222.319" gradientUnits="userSpaceOnUse">
<stop stop-color="#AFB0B0"/>
<stop offset="1" stop-color="#676969"/>
</linearGradient>
<linearGradient id="paint7_linear_596_247" x1="287.032" y1="249.815" x2="425.571" y2="249.815" gradientUnits="userSpaceOnUse">
<stop stop-color="#AFB0B0"/>
<stop offset="1" stop-color="#676969"/>
</linearGradient>
<linearGradient id="paint8_linear_596_247" x1="428.182" y1="319.492" x2="423.45" y2="269.559" gradientUnits="userSpaceOnUse">
<stop stop-color="#4C8D66"/>
<stop offset="1" stop-color="#ABD47C"/>
</linearGradient>
<linearGradient id="paint9_linear_596_247" x1="423.205" y1="318.431" x2="396.525" y2="277.229" gradientUnits="userSpaceOnUse">
<stop stop-color="#4C8D66"/>
<stop offset="1" stop-color="#ABD47C"/>
</linearGradient>
<linearGradient id="paint10_linear_596_247" x1="424.673" y1="326.019" x2="392.201" y2="308.478" gradientUnits="userSpaceOnUse">
<stop stop-color="#4C8D66"/>
<stop offset="1" stop-color="#ABD47C"/>
</linearGradient>
<linearGradient id="paint11_linear_596_247" x1="264.514" y1="223.543" x2="264.514" y2="181.035" gradientUnits="userSpaceOnUse">
<stop stop-color="#D1795C"/>
<stop offset="1" stop-color="#F7A485"/>
</linearGradient>
<linearGradient id="paint12_linear_596_247" x1="462.531" y1="277.147" x2="488.884" y2="229.091" gradientUnits="userSpaceOnUse">
<stop stop-color="#F16425"/>
<stop offset="1" stop-color="#F9A71D"/>
</linearGradient>
<linearGradient id="paint13_linear_596_247" x1="446.376" y1="278.861" x2="468.977" y2="254.221" gradientUnits="userSpaceOnUse">
<stop stop-color="#F16425"/>
<stop offset="1" stop-color="#F9A71D"/>
</linearGradient>
<linearGradient id="paint14_linear_596_247" x1="441.807" y1="310.354" x2="454.78" y2="286.612" gradientUnits="userSpaceOnUse">
<stop stop-color="#F16425"/>
<stop offset="1" stop-color="#F9A71D"/>
</linearGradient>
<linearGradient id="paint15_linear_596_247" x1="502.673" y1="384.356" x2="232.122" y2="334.341" gradientUnits="userSpaceOnUse">
<stop stop-color="#70142C"/>
<stop offset="1" stop-color="#D62954"/>
</linearGradient>
<linearGradient id="paint16_linear_596_247" x1="329.54" y1="241.248" x2="237.181" y2="224.196" gradientUnits="userSpaceOnUse">
<stop stop-color="#70142C"/>
<stop offset="1" stop-color="#D62954"/>
</linearGradient>
<linearGradient id="paint17_linear_596_247" x1="403.624" y1="282.451" x2="245.83" y2="253.242" gradientUnits="userSpaceOnUse">
<stop stop-color="#70142C"/>
<stop offset="1" stop-color="#D62954"/>
</linearGradient>
<linearGradient id="paint18_linear_596_247" x1="386.898" y1="126.207" x2="515.809" y2="126.207" gradientUnits="userSpaceOnUse">
<stop stop-color="#70142C"/>
<stop offset="1" stop-color="#D62954"/>
</linearGradient>
<linearGradient id="paint19_linear_596_247" x1="365.685" y1="126.288" x2="447.111" y2="126.288" gradientUnits="userSpaceOnUse">
<stop stop-color="#70142C"/>
<stop offset="1" stop-color="#D62954"/>
</linearGradient>
<linearGradient id="paint20_linear_596_247" x1="283.034" y1="164.717" x2="391.956" y2="149.949" gradientUnits="userSpaceOnUse">
<stop stop-color="#D8652F"/>
<stop offset="1" stop-color="#D62954"/>
</linearGradient>
<linearGradient id="paint21_linear_596_247" x1="446.62" y1="301.461" x2="467.671" y2="309.049" gradientUnits="userSpaceOnUse">
<stop stop-color="#F16425"/>
<stop offset="1" stop-color="#F9A71D"/>
</linearGradient>
<linearGradient id="paint22_linear_596_247" x1="426.142" y1="320.716" x2="441.236" y2="329.936" gradientUnits="userSpaceOnUse">
<stop stop-color="#F16425"/>
<stop offset="1" stop-color="#F9A71D"/>
</linearGradient>
<linearGradient id="paint23_linear_596_247" x1="401.258" y1="330.67" x2="416.189" y2="344.54" gradientUnits="userSpaceOnUse">
<stop stop-color="#F16425"/>
<stop offset="1" stop-color="#F9A71D"/>
</linearGradient>
<linearGradient id="paint24_linear_596_247" x1="366.011" y1="335.076" x2="380.861" y2="356.044" gradientUnits="userSpaceOnUse">
<stop stop-color="#F16425"/>
<stop offset="1" stop-color="#F9A71D"/>
</linearGradient>
<linearGradient id="paint25_linear_596_247" x1="324.237" y1="326.509" x2="340.963" y2="359.797" gradientUnits="userSpaceOnUse">
<stop stop-color="#F16425"/>
<stop offset="1" stop-color="#F9A71D"/>
</linearGradient>
<linearGradient id="paint26_linear_596_247" x1="281.892" y1="320.879" x2="286.053" y2="359.226" gradientUnits="userSpaceOnUse">
<stop stop-color="#F16425"/>
<stop offset="1" stop-color="#F9A71D"/>
</linearGradient>
<linearGradient id="paint27_linear_596_247" x1="242.811" y1="301.053" x2="230.409" y2="338.094" gradientUnits="userSpaceOnUse">
<stop stop-color="#F16425"/>
<stop offset="1" stop-color="#F9A71D"/>
</linearGradient>
<linearGradient id="paint28_linear_596_247" x1="208.053" y1="268.825" x2="189.043" y2="289.875" gradientUnits="userSpaceOnUse">
<stop stop-color="#F16425"/>
<stop offset="1" stop-color="#F9A71D"/>
</linearGradient>
<linearGradient id="paint29_linear_596_247" x1="198.997" y1="218.484" x2="171.502" y2="236.434" gradientUnits="userSpaceOnUse">
<stop stop-color="#F16425"/>
<stop offset="1" stop-color="#F9A71D"/>
</linearGradient>
<linearGradient id="paint30_linear_596_247" x1="205.361" y1="169.775" x2="166.525" y2="179.566" gradientUnits="userSpaceOnUse">
<stop stop-color="#F16425"/>
<stop offset="1" stop-color="#F9A71D"/>
</linearGradient>
<linearGradient id="paint31_linear_596_247" x1="221.108" y1="122.29" x2="179.905" y2="117.232" gradientUnits="userSpaceOnUse">
<stop stop-color="#F16425"/>
<stop offset="1" stop-color="#F9A71D"/>
</linearGradient>
<linearGradient id="paint32_linear_596_247" x1="247.543" y1="82.1484" x2="220.21" y2="65.0146" gradientUnits="userSpaceOnUse">
<stop stop-color="#F16425"/>
<stop offset="1" stop-color="#F9A71D"/>
</linearGradient>
<linearGradient id="paint33_linear_596_247" x1="293.885" y1="59.3034" x2="273.978" y2="34.9897" gradientUnits="userSpaceOnUse">
<stop stop-color="#F16425"/>
<stop offset="1" stop-color="#F9A71D"/>
</linearGradient>
<linearGradient id="paint34_linear_596_247" x1="349.121" y1="60.5272" x2="334.761" y2="23.6488" gradientUnits="userSpaceOnUse">
<stop stop-color="#F16425"/>
<stop offset="1" stop-color="#F9A71D"/>
</linearGradient>
<linearGradient id="paint35_linear_596_247" x1="398.646" y1="70.0732" x2="397.586" y2="29.0337" gradientUnits="userSpaceOnUse">
<stop stop-color="#F16425"/>
<stop offset="1" stop-color="#F9A71D"/>
</linearGradient>
<linearGradient id="paint36_linear_596_247" x1="440.012" y1="87.6149" x2="456.33" y2="57.8347" gradientUnits="userSpaceOnUse">
<stop stop-color="#F16425"/>
<stop offset="1" stop-color="#F9A71D"/>
</linearGradient>
<linearGradient id="paint37_linear_596_247" x1="480.725" y1="155.171" x2="492.229" y2="115.192" gradientUnits="userSpaceOnUse">
<stop stop-color="#F16425"/>
<stop offset="1" stop-color="#F9A71D"/>
</linearGradient>
<linearGradient id="paint38_linear_596_247" x1="245.992" y1="257.974" x2="227.145" y2="254.465" gradientUnits="userSpaceOnUse">
<stop stop-color="#70142C"/>
<stop offset="1" stop-color="#D62954"/>
</linearGradient>
<linearGradient id="paint39_linear_596_247" x1="481.216" y1="214.731" x2="492.639" y2="210.407" gradientUnits="userSpaceOnUse">
<stop stop-color="#DF2F5D" stop-opacity="0"/>
<stop offset="1" stop-color="#D1224C"/>
</linearGradient>
<linearGradient id="paint40_linear_596_247" x1="478.034" y1="205.756" x2="489.457" y2="201.759" gradientUnits="userSpaceOnUse">
<stop stop-color="#DF2F5D" stop-opacity="0"/>
<stop offset="1" stop-color="#D1224C"/>
</linearGradient>
<linearGradient id="paint41_linear_596_247" x1="475.26" y1="196.618" x2="489.13" y2="191.968" gradientUnits="userSpaceOnUse">
<stop stop-color="#DF2F5D" stop-opacity="0"/>
<stop offset="1" stop-color="#D1224C"/>
</linearGradient>
<linearGradient id="paint42_linear_596_247" x1="471.751" y1="187.48" x2="483.419" y2="182.667" gradientUnits="userSpaceOnUse">
<stop stop-color="#DF2F5D" stop-opacity="0"/>
<stop offset="1" stop-color="#D1224C"/>
</linearGradient>
<linearGradient id="paint43_linear_596_247" x1="466.611" y1="215.466" x2="478.605" y2="211.631" gradientUnits="userSpaceOnUse">
<stop stop-color="#DF2F5D" stop-opacity="0"/>
<stop offset="1" stop-color="#D1224C"/>
</linearGradient>
<linearGradient id="paint44_linear_596_247" x1="462.94" y1="206.491" x2="473.057" y2="202.656" gradientUnits="userSpaceOnUse">
<stop stop-color="#DF2F5D" stop-opacity="0"/>
<stop offset="1" stop-color="#D1224C"/>
</linearGradient>
<linearGradient id="paint45_linear_596_247" x1="460.329" y1="197.108" x2="469.467" y2="193.192" gradientUnits="userSpaceOnUse">
<stop stop-color="#DF2F5D" stop-opacity="0"/>
<stop offset="1" stop-color="#D1224C"/>
</linearGradient>
<linearGradient id="paint46_linear_596_247" x1="451.19" y1="216.689" x2="462.857" y2="212.12" gradientUnits="userSpaceOnUse">
<stop stop-color="#DF2F5D" stop-opacity="0"/>
<stop offset="1" stop-color="#D1224C"/>
</linearGradient>
<linearGradient id="paint47_linear_596_247" x1="448.906" y1="207.225" x2="459.023" y2="203.227" gradientUnits="userSpaceOnUse">
<stop stop-color="#DF2F5D" stop-opacity="0"/>
<stop offset="1" stop-color="#D1224C"/>
</linearGradient>
<linearGradient id="paint48_linear_596_247" x1="393.507" y1="70.6442" x2="382.084" y2="66.2383" gradientUnits="userSpaceOnUse">
<stop stop-color="#DF2F5D" stop-opacity="0"/>
<stop offset="1" stop-color="#D1224C"/>
</linearGradient>
<linearGradient id="paint49_linear_596_247" x1="396.771" y1="61.6693" x2="385.266" y2="57.6714" gradientUnits="userSpaceOnUse">
<stop stop-color="#DF2F5D" stop-opacity="0"/>
<stop offset="1" stop-color="#D1224C"/>
</linearGradient>
<linearGradient id="paint50_linear_596_247" x1="399.463" y1="52.4497" x2="385.593" y2="47.8807" gradientUnits="userSpaceOnUse">
<stop stop-color="#DF2F5D" stop-opacity="0"/>
<stop offset="1" stop-color="#D1224C"/>
</linearGradient>
<linearGradient id="paint51_linear_596_247" x1="403.053" y1="43.3933" x2="391.304" y2="38.4979" gradientUnits="userSpaceOnUse">
<stop stop-color="#DF2F5D" stop-opacity="0"/>
<stop offset="1" stop-color="#D1224C"/>
</linearGradient>
<linearGradient id="paint52_linear_596_247" x1="408.111" y1="71.3785" x2="396.117" y2="67.5437" gradientUnits="userSpaceOnUse">
<stop stop-color="#DF2F5D" stop-opacity="0"/>
<stop offset="1" stop-color="#D1224C"/>
</linearGradient>
<linearGradient id="paint53_linear_596_247" x1="411.783" y1="62.3221" x2="401.666" y2="58.569" gradientUnits="userSpaceOnUse">
<stop stop-color="#DF2F5D" stop-opacity="0"/>
<stop offset="1" stop-color="#D1224C"/>
</linearGradient>
<linearGradient id="paint54_linear_596_247" x1="414.393" y1="52.9392" x2="405.255" y2="49.0229" gradientUnits="userSpaceOnUse">
<stop stop-color="#DF2F5D" stop-opacity="0"/>
<stop offset="1" stop-color="#D1224C"/>
</linearGradient>
<linearGradient id="paint55_linear_596_247" x1="423.531" y1="72.5207" x2="411.864" y2="68.0333" gradientUnits="userSpaceOnUse">
<stop stop-color="#DF2F5D" stop-opacity="0"/>
<stop offset="1" stop-color="#D1224C"/>
</linearGradient>
<linearGradient id="paint56_linear_596_247" x1="425.816" y1="63.1379" x2="415.699" y2="59.14" gradientUnits="userSpaceOnUse">
<stop stop-color="#DF2F5D" stop-opacity="0"/>
<stop offset="1" stop-color="#D1224C"/>
</linearGradient>
<linearGradient id="paint57_linear_596_247" x1="344.39" y1="130.694" x2="331.662" y2="128.573" gradientUnits="userSpaceOnUse">
<stop stop-color="#DF2F5D" stop-opacity="0"/>
<stop offset="1" stop-color="#D1224C"/>
</linearGradient>
<linearGradient id="paint58_linear_596_247" x1="345.777" y1="121.23" x2="333.131" y2="119.516" gradientUnits="userSpaceOnUse">
<stop stop-color="#DF2F5D" stop-opacity="0"/>
<stop offset="1" stop-color="#D1224C"/>
</linearGradient>
<linearGradient id="paint59_linear_596_247" x1="346.593" y1="111.684" x2="331.336" y2="109.889" gradientUnits="userSpaceOnUse">
<stop stop-color="#DF2F5D" stop-opacity="0"/>
<stop offset="1" stop-color="#D1224C"/>
</linearGradient>
<linearGradient id="paint60_linear_596_247" x1="348.225" y1="102.056" x2="335.171" y2="99.527" gradientUnits="userSpaceOnUse">
<stop stop-color="#DF2F5D" stop-opacity="0"/>
<stop offset="1" stop-color="#D1224C"/>
</linearGradient>
<linearGradient id="paint61_linear_596_247" x1="358.831" y1="128.491" x2="345.695" y2="127.023" gradientUnits="userSpaceOnUse">
<stop stop-color="#DF2F5D" stop-opacity="0"/>
<stop offset="1" stop-color="#D1224C"/>
</linearGradient>
<linearGradient id="paint62_linear_596_247" x1="360.626" y1="118.864" x2="349.448" y2="117.15" gradientUnits="userSpaceOnUse">
<stop stop-color="#DF2F5D" stop-opacity="0"/>
<stop offset="1" stop-color="#D1224C"/>
</linearGradient>
<linearGradient id="paint63_linear_596_247" x1="361.279" y1="109.155" x2="351.08" y2="107.033" gradientUnits="userSpaceOnUse">
<stop stop-color="#DF2F5D" stop-opacity="0"/>
<stop offset="1" stop-color="#D1224C"/>
</linearGradient>
<linearGradient id="paint64_linear_596_247" x1="374.252" y1="126.533" x2="361.28" y2="124.33" gradientUnits="userSpaceOnUse">
<stop stop-color="#DF2F5D" stop-opacity="0"/>
<stop offset="1" stop-color="#D1224C"/>
</linearGradient>
<linearGradient id="paint65_linear_596_247" x1="374.579" y1="116.824" x2="363.319" y2="114.866" gradientUnits="userSpaceOnUse">
<stop stop-color="#DF2F5D" stop-opacity="0"/>
<stop offset="1" stop-color="#D1224C"/>
</linearGradient>
<linearGradient id="paint66_linear_596_247" x1="250.4" y1="90.6337" x2="240.201" y2="96.4265" gradientUnits="userSpaceOnUse">
<stop stop-color="#DF2F5D" stop-opacity="0"/>
<stop offset="1" stop-color="#ED376A"/>
</linearGradient>
<linearGradient id="paint67_linear_596_247" x1="245.504" y1="82.4748" x2="235.55" y2="88.5124" gradientUnits="userSpaceOnUse">
<stop stop-color="#DF2F5D" stop-opacity="0"/>
<stop offset="1" stop-color="#ED376A"/>
</linearGradient>
<linearGradient id="paint68_linear_596_247" x1="240.12" y1="74.5606" x2="228.289" y2="81.9852" gradientUnits="userSpaceOnUse">
<stop stop-color="#DF2F5D" stop-opacity="0"/>
<stop offset="1" stop-color="#ED376A"/>
</linearGradient>
<linearGradient id="paint69_linear_596_247" x1="235.306" y1="65.9937" x2="224.699" y2="71.705" gradientUnits="userSpaceOnUse">
<stop stop-color="#DF2F5D" stop-opacity="0"/>
<stop offset="1" stop-color="#ED376A"/>
</linearGradient>
<linearGradient id="paint70_linear_596_247" x1="260.272" y1="79.8639" x2="250.154" y2="86.3911" gradientUnits="userSpaceOnUse">
<stop stop-color="#DF2F5D" stop-opacity="0"/>
<stop offset="1" stop-color="#ED376A"/>
</linearGradient>
<linearGradient id="paint71_linear_596_247" x1="255.621" y1="71.297" x2="246.647" y2="76.5187" gradientUnits="userSpaceOnUse">
<stop stop-color="#DF2F5D" stop-opacity="0"/>
<stop offset="1" stop-color="#ED376A"/>
</linearGradient>
<linearGradient id="paint72_linear_596_247" x1="249.991" y1="63.3828" x2="241.588" y2="67.7071" gradientUnits="userSpaceOnUse">
<stop stop-color="#DF2F5D" stop-opacity="0"/>
<stop offset="1" stop-color="#ED376A"/>
</linearGradient>
<linearGradient id="paint73_linear_596_247" x1="270.877" y1="68.7677" x2="260.434" y2="74.6421" gradientUnits="userSpaceOnUse">
<stop stop-color="#DF2F5D" stop-opacity="0"/>
<stop offset="1" stop-color="#ED376A"/>
</linearGradient>
<linearGradient id="paint74_linear_596_247" x1="265.085" y1="61.0166" x2="256.029" y2="65.9936" gradientUnits="userSpaceOnUse">
<stop stop-color="#DF2F5D" stop-opacity="0"/>
<stop offset="1" stop-color="#ED376A"/>
</linearGradient>
<linearGradient id="paint75_linear_596_247" x1="222.252" y1="186.991" x2="220.62" y2="199.882" gradientUnits="userSpaceOnUse">
<stop stop-color="#DF2F5D" stop-opacity="0"/>
<stop offset="1" stop-color="#ED376A"/>
</linearGradient>
<linearGradient id="paint76_linear_596_247" x1="212.787" y1="185.93" x2="211.563" y2="198.74" gradientUnits="userSpaceOnUse">
<stop stop-color="#DF2F5D" stop-opacity="0"/>
<stop offset="1" stop-color="#ED376A"/>
</linearGradient>
<linearGradient id="paint77_linear_596_247" x1="203.24" y1="185.441" x2="201.935" y2="200.943" gradientUnits="userSpaceOnUse">
<stop stop-color="#DF2F5D" stop-opacity="0"/>
<stop offset="1" stop-color="#ED376A"/>
</linearGradient>
<linearGradient id="paint78_linear_596_247" x1="193.532" y1="184.135" x2="191.492" y2="197.353" gradientUnits="userSpaceOnUse">
<stop stop-color="#DF2F5D" stop-opacity="0"/>
<stop offset="1" stop-color="#ED376A"/>
</linearGradient>
<linearGradient id="paint79_linear_596_247" x1="219.558" y1="172.631" x2="218.579" y2="185.93" gradientUnits="userSpaceOnUse">
<stop stop-color="#DF2F5D" stop-opacity="0"/>
<stop offset="1" stop-color="#ED376A"/>
</linearGradient>
<linearGradient id="paint80_linear_596_247" x1="209.931" y1="171.081" x2="208.544" y2="182.503" gradientUnits="userSpaceOnUse">
<stop stop-color="#DF2F5D" stop-opacity="0"/>
<stop offset="1" stop-color="#ED376A"/>
</linearGradient>
<linearGradient id="paint81_linear_596_247" x1="200.222" y1="170.836" x2="198.427" y2="181.198" gradientUnits="userSpaceOnUse">
<stop stop-color="#DF2F5D" stop-opacity="0"/>
<stop offset="1" stop-color="#ED376A"/>
</linearGradient>
<linearGradient id="paint82_linear_596_247" x1="217.111" y1="157.292" x2="215.316" y2="170.428" gradientUnits="userSpaceOnUse">
<stop stop-color="#DF2F5D" stop-opacity="0"/>
<stop offset="1" stop-color="#ED376A"/>
</linearGradient>
<linearGradient id="paint83_linear_596_247" x1="207.403" y1="157.292" x2="205.771" y2="168.715" gradientUnits="userSpaceOnUse">
<stop stop-color="#DF2F5D" stop-opacity="0"/>
<stop offset="1" stop-color="#ED376A"/>
</linearGradient>
<linearGradient id="paint84_linear_596_247" x1="263.371" y1="316.065" x2="270.633" y2="321.695" gradientUnits="userSpaceOnUse">
<stop stop-color="#DF2F5D" stop-opacity="0"/>
<stop offset="1" stop-color="#ED376A"/>
</linearGradient>
<linearGradient id="paint85_linear_596_247" x1="258.965" y1="322.103" x2="266.308" y2="327.406" gradientUnits="userSpaceOnUse">
<stop stop-color="#DF2F5D" stop-opacity="0"/>
<stop offset="1" stop-color="#ED376A"/>
</linearGradient>
<linearGradient id="paint86_linear_596_247" x1="254.886" y1="328.385" x2="263.779" y2="334.586" gradientUnits="userSpaceOnUse">
<stop stop-color="#DF2F5D" stop-opacity="0"/>
<stop offset="1" stop-color="#ED376A"/>
</linearGradient>
<linearGradient id="paint87_linear_596_247" x1="250.154" y1="334.342" x2="257.497" y2="340.298" gradientUnits="userSpaceOnUse">
<stop stop-color="#DF2F5D" stop-opacity="0"/>
<stop offset="1" stop-color="#ED376A"/>
</linearGradient>
<linearGradient id="paint88_linear_596_247" x1="252.682" y1="312.312" x2="260.433" y2="317.616" gradientUnits="userSpaceOnUse">
<stop stop-color="#DF2F5D" stop-opacity="0"/>
<stop offset="1" stop-color="#ED376A"/>
</linearGradient>
<linearGradient id="paint89_linear_596_247" x1="247.95" y1="318.187" x2="254.314" y2="323.001" gradientUnits="userSpaceOnUse">
<stop stop-color="#DF2F5D" stop-opacity="0"/>
<stop offset="1" stop-color="#ED376A"/>
</linearGradient>
<linearGradient id="paint90_linear_596_247" x1="243.87" y1="324.551" x2="249.5" y2="329.364" gradientUnits="userSpaceOnUse">
<stop stop-color="#DF2F5D" stop-opacity="0"/>
<stop offset="1" stop-color="#ED376A"/>
</linearGradient>
<linearGradient id="paint91_linear_596_247" x1="241.504" y1="307.988" x2="248.848" y2="313.699" gradientUnits="userSpaceOnUse">
<stop stop-color="#DF2F5D" stop-opacity="0"/>
<stop offset="1" stop-color="#ED376A"/>
</linearGradient>
<linearGradient id="paint92_linear_596_247" x1="237.67" y1="314.434" x2="243.952" y2="319.492" gradientUnits="userSpaceOnUse">
<stop stop-color="#DF2F5D" stop-opacity="0"/>
<stop offset="1" stop-color="#ED376A"/>
</linearGradient>
<linearGradient id="paint93_linear_596_247" x1="472.73" y1="249.488" x2="491.169" y2="192.049" gradientUnits="userSpaceOnUse">
<stop stop-color="#4C8D66"/>
<stop offset="1" stop-color="#ABD47C"/>
</linearGradient>
<linearGradient id="paint94_linear_596_247" x1="468.324" y1="251.039" x2="458.125" y2="191.968" gradientUnits="userSpaceOnUse">
<stop stop-color="#4C8D66"/>
<stop offset="1" stop-color="#ABD47C"/>
</linearGradient>
<linearGradient id="paint95_linear_596_247" x1="466.121" y1="256.913" x2="439.278" y2="223.217" gradientUnits="userSpaceOnUse">
<stop stop-color="#4C8D66"/>
<stop offset="1" stop-color="#ABD47C"/>
</linearGradient>
<linearGradient id="paint96_linear_596_247" x1="127.688" y1="305.214" x2="134.541" y2="245.49" gradientUnits="userSpaceOnUse">
<stop stop-color="#4C8D66"/>
<stop offset="1" stop-color="#ABD47C"/>
</linearGradient>
<linearGradient id="paint97_linear_596_247" x1="122.058" y1="302.603" x2="101.008" y2="247.53" gradientUnits="userSpaceOnUse">
<stop stop-color="#4C8D66"/>
<stop offset="1" stop-color="#ABD47C"/>
</linearGradient>
<linearGradient id="paint98_linear_596_247" x1="122.303" y1="311.415" x2="89.1775" y2="283.266" gradientUnits="userSpaceOnUse">
<stop stop-color="#4C8D66"/>
<stop offset="1" stop-color="#ABD47C"/>
</linearGradient>
<linearGradient id="paint99_linear_596_247" x1="653.776" y1="305.785" x2="669.604" y2="256.423" gradientUnits="userSpaceOnUse">
<stop stop-color="#4C8D66"/>
<stop offset="1" stop-color="#ABD47C"/>
</linearGradient>
<linearGradient id="paint100_linear_596_247" x1="649.86" y1="303.256" x2="641.13" y2="252.507" gradientUnits="userSpaceOnUse">
<stop stop-color="#4C8D66"/>
<stop offset="1" stop-color="#ABD47C"/>
</linearGradient>
<linearGradient id="paint101_linear_596_247" x1="648.391" y1="310.436" x2="625.383" y2="281.471" gradientUnits="userSpaceOnUse">
<stop stop-color="#4C8D66"/>
<stop offset="1" stop-color="#ABD47C"/>
</linearGradient>
<linearGradient id="paint102_linear_596_247" x1="530.25" y1="335.892" x2="541.019" y2="302.195" gradientUnits="userSpaceOnUse">
<stop stop-color="#4C8D66"/>
<stop offset="1" stop-color="#ABD47C"/>
</linearGradient>
<linearGradient id="paint103_linear_596_247" x1="527.801" y1="334.586" x2="521.845" y2="299.992" gradientUnits="userSpaceOnUse">
<stop stop-color="#4C8D66"/>
<stop offset="1" stop-color="#ABD47C"/>
</linearGradient>
<linearGradient id="paint104_linear_596_247" x1="526.741" y1="339.889" x2="510.994" y2="320.226" gradientUnits="userSpaceOnUse">
<stop stop-color="#4C8D66"/>
<stop offset="1" stop-color="#ABD47C"/>
</linearGradient>
<linearGradient id="paint105_linear_596_247" x1="607.841" y1="388.843" x2="622.038" y2="344.622" gradientUnits="userSpaceOnUse">
<stop stop-color="#4C8D66"/>
<stop offset="1" stop-color="#ABD47C"/>
</linearGradient>
<linearGradient id="paint106_linear_596_247" x1="604.495" y1="386.64" x2="596.663" y2="341.195" gradientUnits="userSpaceOnUse">
<stop stop-color="#4C8D66"/>
<stop offset="1" stop-color="#ABD47C"/>
</linearGradient>
<linearGradient id="paint107_linear_596_247" x1="603.108" y1="393.249" x2="582.466" y2="367.303" gradientUnits="userSpaceOnUse">
<stop stop-color="#4C8D66"/>
<stop offset="1" stop-color="#ABD47C"/>
</linearGradient>
<linearGradient id="paint108_linear_596_247" x1="25.9459" y1="330.833" x2="39.3265" y2="289.141" gradientUnits="userSpaceOnUse">
<stop stop-color="#4C8D66"/>
<stop offset="1" stop-color="#ABD47C"/>
</linearGradient>
<linearGradient id="paint109_linear_596_247" x1="22.7643" y1="328.875" x2="15.3397" y2="286.04" gradientUnits="userSpaceOnUse">
<stop stop-color="#4C8D66"/>
<stop offset="1" stop-color="#ABD47C"/>
</linearGradient>
<linearGradient id="paint110_linear_596_247" x1="21.4584" y1="335.157" x2="1.9585" y2="310.762" gradientUnits="userSpaceOnUse">
<stop stop-color="#4C8D66"/>
<stop offset="1" stop-color="#ABD47C"/>
</linearGradient>
<linearGradient id="paint111_linear_596_247" x1="126.545" y1="387.946" x2="137.397" y2="354.249" gradientUnits="userSpaceOnUse">
<stop stop-color="#4C8D66"/>
<stop offset="1" stop-color="#ABD47C"/>
</linearGradient>
<linearGradient id="paint112_linear_596_247" x1="124.098" y1="386.64" x2="118.224" y2="352.046" gradientUnits="userSpaceOnUse">
<stop stop-color="#4C8D66"/>
<stop offset="1" stop-color="#ABD47C"/>
</linearGradient>
<linearGradient id="paint113_linear_596_247" x1="123.038" y1="392.025" x2="107.373" y2="372.28" gradientUnits="userSpaceOnUse">
<stop stop-color="#4C8D66"/>
<stop offset="1" stop-color="#ABD47C"/>
</linearGradient>
<linearGradient id="paint114_linear_596_247" x1="52.2181" y1="327.733" x2="52.2181" y2="338.421" gradientUnits="userSpaceOnUse">
<stop stop-color="#AFB0B0"/>
<stop offset="1" stop-color="#676969"/>
</linearGradient>
<linearGradient id="paint115_linear_596_247" x1="38.5109" y1="329.201" x2="38.5109" y2="343.398" gradientUnits="userSpaceOnUse">
<stop stop-color="#BE6542"/>
<stop offset="1" stop-color="#7D422C"/>
</linearGradient>
<linearGradient id="paint116_linear_596_247" x1="157.712" y1="385.824" x2="157.712" y2="396.513" gradientUnits="userSpaceOnUse">
<stop stop-color="#AFB0B0"/>
<stop offset="1" stop-color="#676969"/>
</linearGradient>
<linearGradient id="paint117_linear_596_247" x1="144.005" y1="387.293" x2="144.005" y2="401.49" gradientUnits="userSpaceOnUse">
<stop stop-color="#BE6542"/>
<stop offset="1" stop-color="#7D422C"/>
</linearGradient>
<linearGradient id="paint118_linear_596_247" x1="555.379" y1="333.607" x2="555.379" y2="344.295" gradientUnits="userSpaceOnUse">
<stop stop-color="#AFB0B0"/>
<stop offset="1" stop-color="#676969"/>
</linearGradient>
<linearGradient id="paint119_linear_596_247" x1="541.672" y1="335.076" x2="541.672" y2="349.354" gradientUnits="userSpaceOnUse">
<stop stop-color="#BE6542"/>
<stop offset="1" stop-color="#7D422C"/>
</linearGradient>
<linearGradient id="paint120_linear_596_247" x1="678.008" y1="306.03" x2="678.008" y2="321.124" gradientUnits="userSpaceOnUse">
<stop stop-color="#AFB0B0"/>
<stop offset="1" stop-color="#676969"/>
</linearGradient>
<linearGradient id="paint121_linear_596_247" x1="658.59" y1="308.07" x2="658.59" y2="328.222" gradientUnits="userSpaceOnUse">
<stop stop-color="#BE6542"/>
<stop offset="1" stop-color="#7D422C"/>
</linearGradient>
</defs>
</svg>
