<svg width="237" height="379" viewBox="0 0 237 379" fill="none" xmlns="http://www.w3.org/2000/svg">
<path d="M26.3999 68.7998H49.7998V103.9H166.799V68.7998H190.199V127.3H213.599V45.3999H141.293C136.38 31.828 123.51 22 108.3 22C93.0897 22 80.2197 31.828 75.3057 45.3999H3V255.999H84.8997V232.599H26.3999V68.7998ZM108.3 45.3999C114.735 45.3999 120 50.6649 120 57.0999C120 63.5349 114.735 68.7998 108.3 68.7998C101.865 68.7998 96.5997 63.5349 96.5997 57.0999C96.5997 50.6649 101.865 45.3999 108.3 45.3999Z" fill="#F15523"/>
<path d="M205.41 231.43C210.09 223.24 213.6 213.88 213.6 203.35C213.6 174.1 190.2 150.7 160.951 150.7C131.701 150.7 108.301 174.1 108.301 203.35C108.301 232.6 131.701 256 160.951 256C171.481 256 180.841 252.49 189.03 247.81L220.62 279.399L237 263.02L205.41 231.43V231.43ZM160.951 232.6C144.571 232.6 131.701 219.73 131.701 203.35C131.701 186.97 144.571 174.1 160.951 174.1C177.331 174.1 190.2 186.97 190.2 203.35C190.2 219.73 177.331 232.6 160.951 232.6Z" fill="#F49C6D"/>
</svg>
