<?xml version="1.0" standalone="no"?>
<!DOCTYPE svg PUBLIC "-//W3C//DTD SVG 20010904//EN"
 "http://www.w3.org/TR/2001/REC-SVG-20010904/DTD/svg10.dtd">
<svg version="1.0" xmlns="http://www.w3.org/2000/svg"
 width="832.000000pt" height="832.000000pt" viewBox="0 0 832.000000 832.000000"
 preserveAspectRatio="xMidYMid meet">
<metadata>
Created by potrace 1.14, written by Peter Selinger 2001-2017
</metadata>
<g transform="translate(0.000000,832.000000) scale(0.100000,-0.100000)"
fill="#000000" stroke="none">
<path d="M3715 8301 c-91 -33 -139 -63 -205 -130 -78 -78 -154 -219 -185 -341
-1 -3 -4 -12 -7 -20 -3 -8 -18 -59 -33 -113 -15 -55 -35 -123 -45 -153 -24
-69 -14 -69 70 -1 123 100 214 241 240 372 7 33 15 65 18 70 4 6 7 12 7 15 1
15 40 107 51 121 8 8 14 19 14 24 0 4 14 21 30 37 17 15 30 31 30 34 0 3 20
24 45 46 67 61 60 71 -30 39z"/>
<path d="M2799 8253 c-98 -136 -140 -252 -144 -398 -2 -84 10 -192 29 -250 1
-5 6 -23 10 -40 12 -50 85 -253 126 -350 15 -34 52 -139 55 -155 2 -8 4 -16 5
-17 4 -5 7 -22 9 -40 1 -16 2 -16 17 -2 13 13 30 66 51 154 23 101 23 289 0
390 -16 68 -21 82 -31 100 -14 22 -63 143 -78 190 -35 111 -36 257 -3 428 10
50 -4 47 -46 -10z"/>
<path d="M3258 8255 c-56 -44 -122 -122 -151 -180 -22 -44 -49 -143 -54 -195
-4 -48 -3 -224 2 -330 2 -36 4 -100 4 -143 1 -54 5 -77 12 -75 20 7 101 150
126 220 38 108 40 135 30 366 -5 120 7 178 59 285 19 39 33 77 32 84 -2 8 -25
-4 -60 -32z"/>
<path d="M4087 8264 c-1 -1 -18 -4 -37 -7 -74 -11 -154 -44 -198 -80 -40 -34
-122 -120 -122 -128 0 -4 -6 -14 -13 -21 -12 -12 -34 -48 -77 -124 -10 -17
-41 -68 -69 -112 -42 -67 -48 -82 -33 -82 10 0 23 5 30 12 7 7 12 9 12 5 0 -6
102 47 129 67 49 38 133 135 160 185 47 90 103 159 163 202 29 21 58 39 63 39
6 0 21 9 34 19 l24 18 -32 5 c-17 2 -32 4 -34 2z"/>
<path d="M4300 8180 c-76 -15 -166 -69 -255 -152 -101 -95 -151 -138 -157
-138 -5 0 -8 -5 -8 -11 0 -8 16 -10 53 -6 127 15 200 50 293 139 29 28 68 61
86 73 39 27 118 55 153 55 34 0 32 26 -2 35 -41 10 -123 13 -163 5z"/>
<path d="M2260 8117 c0 -1 -9 -30 -21 -62 -22 -62 -23 -68 -39 -149 -28 -139
-2 -327 66 -474 31 -68 100 -191 114 -202 3 -3 26 -34 52 -70 25 -36 55 -76
67 -90 11 -14 24 -29 29 -35 4 -5 46 -57 92 -115 46 -58 89 -111 95 -118 5 -7
15 -18 21 -25 6 -7 13 -17 15 -22 9 -22 54 -85 61 -85 10 0 1 224 -11 285 -6
28 -13 61 -15 74 -28 134 -125 328 -204 408 -47 47 -172 208 -172 220 0 5 -6
15 -12 21 -7 7 -13 16 -14 20 0 4 -10 27 -21 52 -22 49 -48 134 -57 190 -11
69 -23 149 -25 173 -1 6 -21 11 -21 4z"/>
<path d="M4255 7899 c-85 -15 -100 -19 -179 -45 -44 -15 -87 -32 -95 -38 -8
-6 -16 -10 -18 -9 -8 7 -163 -72 -270 -137 -225 -137 -376 -270 -498 -440 -22
-30 -42 -57 -45 -60 -11 -11 -88 -159 -119 -230 -11 -25 -29 -83 -41 -130 -32
-125 -38 -176 -40 -315 -1 -55 2 -118 5 -140 11 -69 58 -233 86 -300 34 -82
125 -356 134 -405 18 -95 22 -204 11 -256 -8 -40 -37 -98 -76 -155 -22 -32
-40 -61 -40 -64 0 -18 -227 -317 -327 -431 -180 -206 -271 -271 -369 -268
-149 6 -243 33 -287 82 -10 11 -20 36 -24 55 -4 30 -1 40 20 59 14 13 37 24
52 26 15 1 31 5 36 8 13 8 -9 34 -27 34 -8 0 -14 4 -14 8 0 7 -75 15 -130 15
-95 -2 -230 -42 -259 -77 -19 -22 -20 -67 -4 -106 15 -37 107 -130 128 -130 7
0 15 -4 17 -9 4 -12 141 -83 213 -110 33 -13 69 -27 80 -31 29 -11 105 -32
140 -37 36 -6 48 -22 31 -43 -10 -13 -52 -100 -111 -235 -26 -59 -47 -111 -71
-180 -14 -38 -30 -79 -35 -90 -6 -12 -11 -27 -13 -35 -1 -8 -9 -35 -16 -60 -8
-25 -14 -47 -15 -50 0 -3 -4 -14 -8 -25 -3 -11 -8 -31 -11 -45 -3 -14 -12 -54
-21 -90 -9 -36 -19 -76 -21 -90 -12 -66 -24 -139 -29 -175 -3 -22 -7 -49 -10
-60 -25 -124 -25 -578 -1 -725 3 -14 7 -43 10 -65 13 -104 108 -470 125 -485
4 -3 12 -23 20 -45 62 -179 229 -469 371 -645 38 -47 201 -232 211 -240 4 -3
46 -41 93 -84 98 -89 131 -116 231 -190 73 -54 199 -137 225 -149 8 -4 31 -17
50 -28 148 -90 494 -235 630 -264 8 -1 33 -8 55 -14 54 -14 220 -48 273 -55
23 -3 61 -9 85 -12 168 -24 493 -24 667 0 147 20 134 18 242 40 108 22 250 62
328 91 25 9 53 18 64 20 10 3 23 9 30 14 6 5 13 9 16 10 17 0 107 40 220 95
331 164 652 421 880 705 19 24 40 49 45 55 6 7 15 19 20 27 6 9 44 67 87 130
91 137 122 190 193 334 141 288 247 668 260 931 2 38 8 114 12 169 13 169 7
441 -12 535 -3 14 -8 45 -11 70 -10 77 -13 94 -44 216 -17 65 -35 127 -40 136
-6 10 -10 24 -10 31 0 43 -141 343 -214 456 -23 36 -45 74 -49 84 -3 9 -11 17
-17 17 -5 0 -10 5 -10 11 0 17 -125 178 -215 279 -70 77 -209 214 -289 285
-38 33 -74 65 -81 72 -10 10 -243 185 -281 211 -31 21 -96 53 -101 48 -10 -10
10 -27 99 -87 49 -34 102 -71 116 -82 45 -37 316 -310 342 -345 14 -18 33 -43
44 -55 10 -12 32 -42 49 -67 17 -25 33 -47 37 -50 3 -3 20 -27 38 -55 17 -27
35 -55 40 -60 9 -11 89 -155 106 -192 6 -13 14 -23 19 -23 4 0 7 -7 7 -16 0
-9 8 -33 19 -53 43 -84 107 -251 127 -331 2 -8 8 -33 14 -55 6 -22 13 -49 15
-60 2 -11 4 -21 5 -22 2 -2 3 -11 4 -20 1 -10 5 -27 8 -38 16 -49 23 -166 22
-370 -1 -285 -9 -368 -69 -675 -10 -53 -67 -243 -85 -286 -11 -24 -19 -45 -19
-47 1 -4 -20 -60 -38 -102 -25 -58 -113 -226 -134 -257 -11 -14 -19 -29 -19
-32 0 -12 -169 -242 -220 -300 -59 -66 -209 -216 -265 -262 -65 -55 -211 -164
-219 -164 -3 0 -24 -13 -48 -29 -24 -16 -63 -39 -88 -52 -25 -12 -52 -29 -62
-36 -9 -8 -22 -16 -30 -17 -7 -1 -27 -9 -43 -18 -90 -48 -384 -154 -412 -149
-2 0 -18 -6 -38 -15 -19 -8 -37 -14 -40 -14 -3 0 -6 0 -7 -1 -2 0 -12 -2 -23
-4 -11 -1 -32 -5 -47 -9 -93 -21 -260 -45 -363 -52 -143 -9 -408 -3 -495 12
-19 3 -42 6 -50 6 -8 0 -37 4 -65 9 -27 5 -66 11 -85 14 -44 8 -223 52 -270
67 -202 65 -449 174 -519 229 -13 11 -28 19 -32 19 -13 0 -174 116 -253 183
-39 33 -101 92 -138 131 -86 91 -87 92 -134 151 -21 28 -41 52 -44 55 -23 23
-112 174 -161 273 -52 105 -129 310 -143 380 -3 12 -14 67 -25 123 -47 236
-48 549 -2 756 57 252 204 481 420 650 36 29 68 55 71 58 17 20 439 280 455
280 2 0 38 20 79 45 42 25 81 45 86 45 6 0 10 4 10 9 0 5 10 13 23 17 12 4 24
10 27 13 3 3 43 31 90 61 47 30 92 60 100 67 60 47 179 142 198 158 80 68 219
203 275 268 29 33 57 65 62 71 6 6 26 34 45 61 19 28 41 54 48 58 6 4 12 12
12 17 0 4 26 45 58 90 75 108 84 123 129 204 30 56 44 72 78 87 74 33 179 0
264 -83 53 -52 68 -85 70 -157 1 -30 3 -57 6 -59 2 -2 22 -1 44 3 73 12 123
79 136 181 9 72 12 77 56 124 45 47 77 112 78 157 5 200 -7 265 -74 379 -38
65 -173 197 -266 259 -41 28 -76 52 -79 55 -3 3 -27 20 -55 39 -27 19 -77 57
-110 85 -159 134 -211 238 -214 430 -1 27 -2 28 -19 13 -15 -14 -17 -32 -16
-124 4 -179 49 -336 149 -518 30 -54 55 -103 55 -107 0 -4 4 -8 9 -8 8 0 23
-41 17 -47 -1 -1 -51 23 -112 53 -117 60 -258 111 -332 120 -40 5 -44 3 -32
-10 7 -9 40 -32 74 -52 59 -36 256 -224 256 -245 0 -6 -9 -8 -19 -4 -11 3 -28
8 -38 10 -19 4 -243 53 -278 61 -63 14 -111 22 -114 18 -12 -12 42 -45 114
-69 96 -32 130 -49 164 -81 29 -27 27 -31 -14 -38 -15 -3 -53 -10 -83 -17
l-55 -11 31 -20 c39 -25 40 -35 5 -36 -16 -1 -39 -4 -53 -7 -14 -3 -52 -10
-85 -16 -88 -15 -100 -17 -100 -19 0 -1 -16 -3 -35 -5 -41 -5 -74 -10 -155
-25 -33 -6 -75 -13 -94 -16 -18 -3 -43 -8 -55 -11 -58 -14 -154 2 -186 30 -14
12 -52 65 -85 117 -32 52 -62 97 -65 100 -11 8 -129 207 -172 290 -22 41 -43
80 -48 85 -12 15 -61 165 -68 205 -8 48 -7 191 1 276 22 216 127 470 259 627
70 83 140 151 255 247 6 5 58 43 115 83 221 158 431 263 585 294 21 4 41 8 46
9 4 1 24 2 44 3 20 0 33 4 29 9 -10 9 -188 10 -241 1z"/>
<path d="M1698 7702 c-12 -248 10 -375 84 -505 16 -26 28 -52 28 -57 0 -5 6
-15 13 -22 6 -7 25 -31 42 -53 35 -48 181 -194 249 -250 27 -22 99 -77 160
-123 61 -46 120 -91 131 -100 11 -9 43 -35 70 -57 28 -22 63 -52 80 -67 16
-15 33 -24 37 -20 3 4 0 32 -8 62 -9 30 -16 60 -18 65 -23 97 -110 272 -182
366 -62 80 -172 189 -190 189 -7 0 -14 3 -16 8 -1 4 -30 25 -63 47 -32 22
-100 81 -150 130 -84 83 -96 100 -152 215 -34 69 -67 142 -74 162 -18 52 -39
57 -41 10z"/>
<path d="M1217 7253 c4 -52 14 -121 27 -179 15 -70 82 -219 113 -252 7 -7 13
-17 13 -22 0 -17 159 -169 233 -223 71 -51 304 -173 497 -260 41 -18 109 -49
150 -67 41 -19 92 -44 112 -57 21 -13 40 -23 42 -23 3 0 27 -13 55 -29 27 -16
52 -27 54 -24 14 14 -83 213 -128 263 -45 49 -121 125 -146 146 -80 66 -227
151 -334 193 -263 103 -393 196 -524 376 -28 39 -54 75 -59 80 -4 6 -27 38
-50 73 -24 34 -47 62 -51 62 -5 0 -7 -26 -4 -57z"/>
<path d="M2723 6638 c-15 -22 -49 -98 -60 -138 -3 -8 -7 -71 -10 -140 -4 -98
-1 -139 12 -189 16 -61 68 -183 90 -208 5 -6 21 -26 35 -45 71 -94 237 -261
254 -255 12 4 14 161 3 207 -22 96 -66 200 -142 335 -124 223 -156 301 -158
386 -2 59 -7 69 -24 47z"/>
<path d="M970 6542 c31 -122 85 -244 148 -332 22 -31 145 -155 186 -188 32
-26 163 -82 248 -106 81 -23 123 -30 258 -41 30 -2 73 -7 95 -11 22 -3 54 -8
70 -10 70 -11 223 -74 295 -123 24 -17 108 -51 123 -51 7 0 -20 61 -32 70 -3
3 -19 25 -35 49 -27 43 -115 135 -166 175 -65 52 -212 119 -405 187 -189 66
-228 80 -283 105 -29 13 -54 24 -57 24 -20 0 -255 161 -311 214 -12 12 -86 72
-113 93 -34 26 -38 14 -21 -55z"/>
<path d="M2369 6038 c-7 -83 6 -149 48 -236 68 -142 174 -234 343 -297 25 -9
54 -21 65 -25 56 -25 151 -44 158 -33 7 11 -20 67 -60 124 -48 70 -123 132
-283 237 -146 96 -235 176 -246 219 -7 24 -23 32 -25 11z"/>
<path d="M893 5802 c6 -15 14 -29 17 -32 3 -3 20 -29 38 -59 77 -127 187 -233
287 -280 114 -54 165 -60 530 -66 265 -4 319 -8 448 -34 64 -13 87 -14 87 -6
0 14 -102 125 -114 125 -4 0 -20 8 -34 18 -53 37 -200 80 -332 98 -19 2 -69 9
-110 15 -41 6 -88 12 -105 14 -16 2 -39 6 -50 8 -11 3 -45 8 -76 11 -60 7 -73
9 -155 26 -70 15 -177 54 -233 86 -119 68 -154 86 -181 94 -28 8 -29 8 -17
-18z"/>
<path d="M2225 5598 c14 -63 70 -153 139 -220 37 -38 74 -68 82 -68 8 0 14 -4
14 -9 0 -5 28 -19 63 -32 68 -26 65 -25 122 -33 22 -4 49 -9 61 -11 36 -8 224
-8 232 -1 4 4 -23 37 -60 72 -67 63 -137 105 -233 139 -27 9 -57 20 -65 23
-18 7 -13 5 -85 26 -92 28 -207 86 -234 117 -32 38 -44 37 -36 -3z"/>
<path d="M2190 5212 c0 -4 15 -30 33 -57 31 -47 145 -150 156 -140 2 3 15 -2
27 -10 44 -29 153 -36 301 -20 72 8 86 20 52 47 -70 55 -201 100 -329 113 -25
2 -55 7 -67 10 -13 3 -32 7 -42 9 -11 3 -29 10 -40 16 -12 6 -21 8 -21 5 0 -4
-12 3 -26 14 -28 22 -44 27 -44 13z"/>
<path d="M1110 5181 c0 -16 135 -149 198 -194 91 -66 151 -86 237 -79 39 3 85
5 103 6 17 1 32 3 32 6 0 3 10 5 23 6 27 0 122 12 157 18 14 3 48 7 75 10 28
3 66 8 85 11 19 2 55 7 80 10 57 6 143 18 153 21 4 1 10 2 15 3 14 3 -68 69
-111 90 -23 11 -76 29 -117 40 -77 21 -182 22 -638 6 -68 -2 -133 0 -145 5
-12 4 -45 18 -74 29 -56 23 -73 26 -73 12z"/>
<path d="M5290 4931 c0 -10 140 -71 162 -71 7 0 24 -7 36 -16 12 -8 22 -12 22
-9 0 11 207 -102 265 -145 30 -22 57 -40 60 -40 3 0 13 -8 23 -17 10 -10 47
-43 83 -73 311 -266 516 -585 622 -970 25 -88 32 -123 42 -190 2 -14 6 -41 9
-60 33 -222 18 -511 -39 -722 -3 -10 -7 -26 -9 -37 -2 -10 -11 -38 -19 -62
-136 -399 -372 -734 -687 -977 -30 -23 -60 -46 -66 -51 -27 -22 -142 -91 -153
-91 -6 0 -11 -4 -11 -8 0 -16 -300 -149 -300 -134 0 4 -4 2 -8 -4 -4 -6 -27
-16 -52 -23 -25 -6 -53 -14 -62 -16 -10 -3 -27 -7 -39 -10 -11 -2 -28 -6 -37
-9 -9 -3 -35 -8 -57 -11 -22 -2 -65 -9 -95 -14 -30 -5 -152 -8 -270 -6 -202 3
-259 9 -420 44 -220 47 -417 127 -600 245 -113 72 -92 57 -215 155 -98 77
-180 158 -213 210 -9 14 -19 28 -22 31 -11 10 -178 237 -189 257 -6 12 -17 23
-26 26 -12 5 -11 -2 5 -44 18 -48 87 -172 115 -208 91 -114 190 -226 259 -290
21 -20 53 -50 70 -66 65 -63 173 -150 251 -200 78 -50 305 -165 355 -180 14
-4 39 -13 55 -20 116 -49 294 -95 430 -112 65 -8 402 -8 485 0 116 11 226 35
350 77 113 38 266 105 276 121 3 5 14 9 24 9 10 0 20 3 22 8 2 4 23 18 48 31
167 89 409 280 524 414 22 27 54 63 70 80 15 18 61 82 101 142 170 258 290
578 322 860 17 142 5 472 -21 592 -4 15 -8 39 -11 53 -34 188 -143 471 -240
625 -14 22 -30 50 -37 63 -6 12 -15 22 -20 22 -4 0 -8 5 -8 11 0 10 -39 64
-107 148 -42 52 -211 221 -268 268 -59 48 -200 152 -235 172 -113 65 -382 191
-408 191 -6 0 -23 5 -39 12 -15 6 -34 12 -42 14 -8 2 -25 5 -38 9 -13 3 -23 1
-23 -4z"/>
<path d="M2124 4898 c-6 -10 101 -119 114 -116 4 1 23 -6 42 -17 26 -14 59
-19 130 -21 82 -2 107 2 188 28 50 16 92 34 92 38 0 10 -52 38 -95 51 -16 5
-64 12 -105 15 -41 3 -78 8 -82 10 -4 3 -8 1 -8 -3 0 -16 -204 -8 -238 10 -21
10 -34 12 -38 5z"/>
<path d="M2130 4664 c0 -3 17 -21 38 -41 58 -56 114 -76 202 -75 75 0 191 30
197 49 4 10 -57 39 -102 50 -11 3 -78 4 -148 3 -70 0 -133 3 -140 7 -15 10
-47 15 -47 7z"/>
</g>
</svg>
