<?xml version="1.0" standalone="no"?>
<!DOCTYPE svg PUBLIC "-//W3C//DTD SVG 20010904//EN"
 "http://www.w3.org/TR/2001/REC-SVG-20010904/DTD/svg10.dtd">
<svg version="1.0" xmlns="http://www.w3.org/2000/svg"
 width="1032.000000pt" height="1032.000000pt" viewBox="0 0 1032.000000 1032.000000"
 preserveAspectRatio="xMidYMid meet">
<metadata>
Created by potrace 1.14, written by Peter Selinger 2001-2017
</metadata>
<g transform="translate(0.000000,1032.000000) scale(0.100000,-0.100000)"
fill="#000000" stroke="none">
<path d="M4490 10305 c-92 -16 -165 -31 -165 -35 0 -1 -7 -3 -15 -5 -24 -4
-112 -35 -145 -49 -16 -8 -52 -24 -80 -36 -27 -13 -53 -28 -57 -34 -4 -6 -8
-8 -8 -3 0 9 -134 -78 -170 -110 -14 -13 -28 -23 -32 -23 -7 0 -167 -159 -214
-212 -11 -13 -29 -38 -39 -56 -11 -17 -23 -32 -26 -32 -4 0 -11 -9 -14 -20 -3
-11 -12 -26 -18 -32 -17 -18 -84 -148 -112 -217 l-23 -56 -1444 0 -1443 -1 -3
-4212 -2 -4212 77 0 c81 -1 2896 0 3088 0 l111 0 -1 216 c0 118 3 218 7 220 5
3 5 11 1 17 -12 19 -10 287 2 287 7 0 7 3 0 8 -6 4 -11 46 -10 97 l0 90 -1170
0 -1170 0 0 3265 c-1 1796 1 3270 3 3276 2 8 135 11 468 11 l464 0 1 -51 c0
-28 1 -343 2 -701 l2 -650 2338 0 c2335 0 2337 0 2338 20 0 11 1 326 1 701 l1
681 467 0 467 1 -1 -1169 -1 -1169 35 -1 c193 -4 892 0 897 5 12 12 10 3257
-2 3265 -5 4 -656 7 -1446 6 l-1436 0 -13 30 c-42 99 -81 178 -113 228 -21 32
-37 62 -37 67 0 6 -4 10 -8 10 -5 0 -24 21 -42 48 -56 77 -147 172 -235 243
-94 76 -276 183 -355 209 -14 5 -49 17 -77 28 -29 11 -53 18 -53 16 0 -3 -8 0
-18 5 -10 5 -38 12 -62 16 -25 4 -49 9 -54 12 -28 18 -364 23 -456 8z m287
-929 c94 -13 218 -89 282 -173 87 -113 119 -267 85 -409 -13 -53 -62 -139
-108 -191 -47 -52 -139 -117 -150 -106 -3 4 -6 2 -6 -4 0 -10 -12 -15 -75 -30
-38 -9 -145 -19 -145 -14 0 4 -20 7 -45 9 -24 1 -57 7 -72 14 -15 6 -30 12
-33 12 -23 4 -111 67 -153 111 -48 48 -101 136 -114 188 -10 42 -20 132 -17
157 2 14 5 41 7 60 15 114 109 249 222 317 58 35 102 50 165 59 25 3 46 7 47
8 3 3 65 -1 110 -8z"/>
<path d="M6799 5176 c-2 -3 -51 -7 -109 -10 -135 -7 -188 -12 -291 -31 -169
-32 -375 -101 -544 -185 -100 -50 -267 -148 -285 -169 -3 -4 -32 -26 -65 -51
-87 -64 -99 -75 -207 -184 -146 -146 -282 -334 -369 -506 -18 -36 -35 -67 -38
-70 -3 -3 -7 -12 -9 -20 -2 -8 -11 -32 -21 -55 -26 -58 -68 -173 -82 -225 -7
-25 -14 -49 -15 -55 -22 -76 -51 -233 -60 -320 -8 -75 -8 -395 0 -455 6 -46 9
-71 21 -150 3 -25 18 -88 32 -140 14 -52 26 -102 27 -110 1 -9 5 -20 8 -25 3
-6 16 -38 27 -72 34 -102 113 -269 166 -353 14 -22 25 -44 25 -49 0 -5 3 -11
8 -13 4 -1 20 -23 36 -47 16 -25 33 -50 37 -55 5 -6 30 -38 56 -71 82 -103
146 -171 255 -268 74 -67 207 -168 247 -188 14 -8 28 -17 31 -20 5 -5 62 -38
150 -86 47 -26 224 -102 280 -120 163 -53 309 -84 480 -102 89 -10 495 -2 495
9 0 1 9 3 20 5 122 22 141 27 205 44 155 42 324 109 494 196 l119 61 628 -628
c345 -346 630 -628 634 -628 3 0 152 146 331 325 l324 324 -631 631 -631 632
52 101 c28 56 56 106 61 112 5 5 9 15 9 21 0 7 13 41 29 76 34 74 79 202 87
244 3 16 8 31 12 34 8 5 9 12 18 68 3 20 7 39 9 42 2 3 6 25 10 50 4 25 9 49
12 54 3 5 7 25 9 45 1 20 5 72 9 116 14 149 5 386 -18 500 -3 11 -8 40 -13 65
-9 50 -11 59 -13 63 -1 1 -4 17 -7 36 -2 19 -8 39 -13 45 -5 6 -7 19 -6 28 2
10 -1 20 -6 24 -5 3 -9 13 -9 22 -1 9 -16 58 -36 107 -19 50 -36 95 -37 100
-5 22 -99 205 -108 211 -5 3 -7 10 -4 15 4 5 1 9 -4 9 -6 0 -11 6 -11 13 0 7
-9 23 -20 35 -11 12 -19 23 -18 24 3 3 -62 100 -72 108 -3 3 -17 21 -30 40
-65 94 -276 305 -389 390 -147 110 -337 219 -495 282 -164 65 -397 124 -525
132 -20 1 -41 4 -46 7 -6 3 -53 6 -105 8 -52 2 -98 5 -101 7 -3 2 -8 2 -10 0z
m152 -950 c70 -8 83 -11 139 -27 25 -7 53 -14 63 -16 33 -6 197 -76 197 -85 0
-4 6 -8 13 -8 12 0 119 -67 167 -104 49 -39 210 -209 210 -223 0 -7 4 -13 8
-13 12 0 85 -125 120 -206 39 -88 78 -221 88 -299 9 -75 9 -295 0 -355 -13
-78 -36 -166 -62 -235 -4 -11 -8 -25 -9 -31 -5 -23 -87 -179 -96 -182 -5 -2
-9 -8 -9 -14 0 -17 -92 -130 -165 -203 -66 -66 -212 -175 -233 -175 -5 0 -20
-8 -33 -18 -22 -17 -145 -70 -179 -77 -8 -2 -15 -4 -15 -6 0 -1 -9 -3 -20 -5
-11 -2 -47 -10 -80 -19 -136 -35 -381 -37 -490 -5 -16 5 -43 10 -60 12 -16 1
-35 6 -42 11 -6 4 -24 10 -39 13 -51 9 -248 111 -321 165 -95 72 -178 153
-240 234 -29 39 -108 163 -112 177 -1 4 -13 33 -27 64 -48 109 -80 236 -90
364 -6 83 -3 265 6 265 1 0 3 20 5 44 3 25 7 52 11 60 3 9 8 27 10 39 3 13 11
43 20 65 8 23 17 50 19 61 2 10 9 23 14 30 5 6 9 14 10 19 0 10 69 145 81 160
5 7 33 43 61 81 54 72 128 148 189 194 19 15 37 29 40 32 3 3 30 21 60 41 98
64 273 138 365 154 17 2 41 7 55 10 14 3 50 8 80 11 30 4 56 7 57 8 5 4 185
-2 234 -8z"/>
</g>
</svg>
