<svg width="596" height="374" viewBox="0 0 596 374" fill="none" xmlns="http://www.w3.org/2000/svg">
<path d="M556.618 101.862L572.65 97.1681" stroke="#3E1A52" stroke-width="2.32348" stroke-linecap="round"/>
<path d="M545.511 69.1469L540.074 84.3889" stroke="#3E1A52" stroke-width="2.32348" stroke-linecap="round"/>
<path d="M550.855 90.7088L568.979 70.8663" stroke="#3E1A52" stroke-width="2.32348" stroke-linecap="round"/>
<path d="M322.92 331.143V307.583L343.274 319.34L322.92 331.143Z" fill="#3E1A52"/>
<path d="M350.384 331.143V307.583L370.784 319.34L350.384 331.143Z" fill="#3E1A52"/>
<path d="M144.895 23.5137V0L165.295 11.7568L144.895 23.5137Z" fill="#3E1A52"/>
<path d="M172.404 23.5137V0L192.804 11.7568L172.404 23.5137Z" fill="#3E1A52"/>
<path d="M244.153 66.4516H261.579" stroke="#3E1A52" stroke-width="2.32348" stroke-linecap="round"/>
<path d="M252.844 75.1415V57.7153" stroke="#3E1A52" stroke-width="2.32348" stroke-linecap="round"/>
<path d="M547.973 194.754H572.416" stroke="#3E1A52" stroke-width="2.32348" stroke-linecap="round"/>
<path d="M560.194 206.976V182.486" stroke="#3E1A52" stroke-width="2.32348" stroke-linecap="round"/>
<path d="M44.334 275.008H70.6358" stroke="#3E1A52" stroke-width="2.32348" stroke-linecap="round"/>
<path d="M57.4844 288.158V261.857" stroke="#3E1A52" stroke-width="2.32348" stroke-linecap="round"/>
<path d="M124.634 43.4027H200.983" stroke="#F15523" stroke-width="3.25288" stroke-linecap="round"/>
<path d="M222.917 320.13H299.267" stroke="#F15523" stroke-width="3.25288" stroke-linecap="round"/>
<path d="M6.60059 77.1862H141.92" stroke="#3E1A52" stroke-width="2.32348" stroke-linecap="round"/>
<path d="M57.3447 152.792H143.407" stroke="#F49C6D" stroke-width="3.25288" stroke-linecap="round"/>
<path d="M79.9287 142.708H121.333" stroke="#3E1A52" stroke-width="2.32348" stroke-linecap="round"/>
<path d="M472.458 211.948H506.427" stroke="#3E1A52" stroke-width="2.32348" stroke-linecap="round"/>
<path d="M122.216 178.536L158.23 95.3093H484.586C484.586 95.3093 484.586 95.4952 484.586 95.8669L448.851 178.536H122.216Z" fill="#F49C6D"/>
<path d="M467.207 224.356L440.58 289.692H117.709L153.677 192.106H458.611C457.17 196.799 456.287 201.632 456.566 206.511C456.752 209.578 457.495 212.645 458.889 215.433C460.33 218.315 462.468 220.777 465.023 222.776C465.736 223.333 466.464 223.86 467.207 224.356Z" fill="#F15523"/>
<path d="M98.3311 119.52H162.134" stroke="#F49C6D" stroke-width="2.32348" stroke-linecap="round"/>
<path d="M466.185 184.113C466.185 184.33 466.185 184.547 466.185 184.763L430.45 281.699H103.814L139.828 184.113H103.814L139.828 100.932H466.185C466.185 100.901 466.185 101.072 466.185 101.443" stroke="#3E1A52" stroke-width="2.32348"/>
<path d="M192.293 151.398C188.622 154.883 185.044 156.51 180.165 156.51C170.638 156.51 168.361 150.701 170.267 142.941C172.265 134.948 177.655 128.86 186.996 128.86C191.875 128.86 194.57 130.487 196.522 133.926L202.795 128.814C199.728 124.492 195.221 122.401 188.576 122.401C175.425 122.401 166.038 131.045 163.11 142.941C160.183 154.791 165.108 162.969 178.538 162.969C185.09 162.969 190.713 160.832 196.011 156.417L192.293 151.398ZM237.88 142.941C235.975 150.748 231.002 156.51 222.127 156.51C213.344 156.51 211.16 150.748 213.065 142.941C215.063 134.902 220.175 128.86 228.911 128.86C237.833 128.86 239.832 135.134 237.88 142.941ZM245.036 142.941C247.964 131.091 243.41 122.448 230.538 122.448C217.712 122.448 208.883 131.137 205.955 142.941C203.028 154.744 207.675 162.969 220.547 162.969C233.187 162.969 242.109 154.744 245.036 142.941ZM300.242 122.912H294.619L276.171 145.775L273.15 150.562H273.057L272.268 145.775L265.251 122.912H259.442L249.683 162.504H256.654L262.648 138.154H262.788L263.345 142.244L269.851 163.016H270.037L286.72 142.244L289.415 138.061H289.508L283.467 162.504H290.484L300.242 122.912ZM318.598 122.912H311.627L301.869 162.458H308.839L318.598 122.912ZM364.603 122.912H357.586L350.569 151.259H350.476L349.128 146.891L336.024 122.912H330.029L320.271 162.458H327.241L334.258 134.158H334.351L335.699 138.433L348.757 162.458H354.844L364.603 122.912ZM408.145 139.409H388.86L387.234 145.868H400.617L399.78 146.565C398.014 152.235 392.531 156.51 386.025 156.51C377.01 156.51 374.129 151.584 376.22 143.08C378.404 134.158 384.027 128.86 393.089 128.86C397.085 128.86 400.71 129.929 402.987 133.554L409.167 128.489C405.868 123.888 400.291 122.448 394.669 122.448C381.657 122.448 372.131 130.673 369.017 143.08C366.043 155.209 371.48 162.969 384.399 162.969C389.371 162.969 394.622 160.925 397.55 158.09L396.435 162.504H402.429L408.145 139.409Z" fill="#3E1A52"/>
<path d="M202.702 244.57C204.468 237.553 200.193 231.698 190.155 229.188C189.086 228.956 183.556 227.469 182.58 227.19C175.471 225.285 173.426 224.402 173.844 222.45C174.402 220.266 178.026 218.268 185.183 218.315C190.713 218.315 196.103 221.335 198.241 224.867L208.65 216.502C204.7 210.972 197.637 207.673 188.017 207.673C173.472 207.673 163.621 214.272 161.483 222.776C159.299 231.744 167.06 235.137 175.424 237.321C176.539 237.646 183.138 239.365 184.207 239.598C190.341 241.178 190.666 243.548 190.387 244.57C189.783 247.126 186.856 249.031 179.513 249.031C173.705 249.031 167.06 246.429 163.993 242.432L153.63 250.843C158.416 256.606 166.27 259.766 175.796 259.766C191.596 259.766 200.704 252.609 202.702 244.57ZM252.889 233.975C250.659 242.944 245.082 248.938 234.766 248.938C224.589 248.938 221.894 242.944 224.124 233.975C226.355 224.774 232.21 218.454 242.294 218.454C252.517 218.454 255.12 224.96 252.889 233.975ZM265.204 233.975C268.921 218.965 262.555 207.673 244.943 207.673C227.47 207.673 215.527 219.012 211.81 233.975C208.092 249.078 214.691 259.766 232.117 259.766C249.311 259.766 261.44 249.078 265.204 233.975V233.975ZM313.067 233.975C310.837 242.944 305.214 248.938 294.944 248.938C284.767 248.938 282.072 242.944 284.256 233.975C286.533 224.774 292.388 218.454 302.472 218.454C312.696 218.454 315.251 224.96 313.067 233.975ZM325.382 233.975C329.053 218.965 322.733 207.673 305.121 207.673C287.648 207.673 275.659 219.012 271.988 233.975C268.271 249.078 274.869 259.766 292.295 259.766C309.489 259.766 321.618 249.078 325.382 233.975V233.975ZM388.162 208.277H376.08L368.413 239.412H368.273L365.764 233.51L350.708 208.277H340.67L328.124 259.115H340.252L348.013 227.701H348.105L350.847 234.068L365.578 259.115H375.616L388.162 208.277Z" fill="white"/>
<path d="M469.763 238.064H537.423" stroke="#F15523" stroke-width="3.25288" stroke-linecap="round"/>
<path d="M464.651 265.714H594.162" stroke="#F15523" stroke-width="3.25288" stroke-linecap="round"/>
<path d="M324.965 83.6454H393.554" stroke="#F49C6D" stroke-width="3.25288" stroke-linecap="round"/>
<path d="M400.431 284.302C400.431 284.302 395.877 250.425 409.446 227.516C420.227 209.392 452.616 207.998 454.522 196.939C456.613 184.949 423.062 169.196 419.483 151.77C416.463 136.76 428.545 100.932 428.545 100.932L516.373 115.245C516.373 115.245 516.419 153.071 508.798 166.315C499.876 181.743 463.026 185.972 461.213 198.054C459.54 209.114 489.792 220.731 494.207 241.364C499.83 267.387 484.727 298.057 484.727 298.057L400.431 284.302Z" fill="white"/>
<path d="M508.799 123.052C508.799 123.052 511.494 145.45 503.083 159.995C495.601 132.439 472.413 117.104 472.413 117.104L508.799 123.052Z" fill="#F49C6D"/>
<path d="M501.921 313.949L501.038 319.572L458.844 312.694L420.32 306.421L378.126 299.544L379.055 293.921C380.217 286.811 386.955 281.932 394.065 283.093L423.341 287.88L461.864 294.153L491.14 298.939C498.25 300.101 503.083 306.839 501.921 313.949Z" fill="#FFF6D9"/>
<path d="M542.443 105.161L541.56 110.737C540.398 117.894 533.66 122.726 526.55 121.565L497.274 116.778L458.751 110.505L429.475 105.719C422.365 104.557 417.532 97.8187 418.694 90.7088L419.577 85.086L461.771 91.9635L500.295 98.2369L542.443 105.161Z" fill="#F15523"/>
<path d="M507.497 319.526L506.568 325.148L464.374 318.271L425.897 311.951L383.702 305.073L384.632 299.497C385.793 292.341 392.485 287.508 399.641 288.67L428.917 293.456L467.394 299.729L496.67 304.516C503.826 305.678 508.659 312.369 507.497 319.526Z" fill="#F15523"/>
<path d="M536.912 99.5845L535.983 105.207C534.821 112.317 528.129 117.15 520.973 115.988L491.697 111.248L453.22 104.929L423.944 100.189C416.788 99.0269 411.955 92.2888 413.117 85.1325L414.046 79.5561L456.241 86.4336L494.717 92.707L536.912 99.5845Z" stroke="#3E1A52" stroke-width="2.32348"/>
<path d="M501.921 313.949L501.038 319.572L458.844 312.694L420.32 306.421L378.126 299.544L379.055 293.921C380.217 286.811 386.955 281.932 394.065 283.093L423.341 287.88L461.864 294.153L491.14 298.939C498.25 300.101 503.083 306.839 501.921 313.949Z" stroke="#3E1A52" stroke-width="2.32348"/>
<path d="M428.545 100.932C428.545 100.932 416.463 136.76 419.483 151.77C423.062 169.196 456.613 184.949 454.522 196.939C452.616 207.998 420.227 209.392 409.446 227.516C395.877 250.425 400.431 284.302 400.431 284.302" stroke="#3E1A52" stroke-width="3.067"/>
<path d="M484.727 298.057C484.727 298.057 499.83 267.387 494.207 241.364C489.792 220.731 459.54 209.114 461.213 198.054C463.026 185.972 499.876 181.743 508.798 166.315C516.419 153.071 516.373 115.245 516.373 115.245" stroke="#3E1A52" stroke-width="3.067"/>
<path d="M459.819 151.073C477.199 166.594 483.797 168.592 502.618 163.062C502.153 164.781 474.411 185.507 460.516 183.23C455.404 182.393 446.064 175.191 438.861 167.523C432.495 160.785 427.941 153.861 426.454 151.584C426.175 151.166 426.361 150.562 426.779 150.329C430.729 148.285 447.876 140.431 459.819 151.073Z" fill="#3E1A52"/>
<path d="M406.147 280.63C411.491 269.152 428.499 236.949 451.037 240.62C473.714 244.338 479.337 280.63 480.592 292.759L406.147 280.63Z" fill="#3E1A52"/>
<path d="M466.744 235.137C466.326 237.6 464.002 239.272 461.539 238.901C459.077 238.482 457.404 236.159 457.822 233.696C458.24 231.233 460.564 229.56 463.027 229.978C465.443 230.397 467.116 232.72 466.744 235.137Z" fill="#3E1A52"/>
<path d="M449.039 224.774C448.714 226.633 446.995 227.934 445.089 227.608C443.23 227.283 441.976 225.517 442.255 223.659C442.58 221.8 444.346 220.545 446.204 220.824C448.063 221.149 449.364 222.915 449.039 224.774Z" fill="#3E1A52"/>
<path d="M460.005 212.506C459.773 213.946 458.379 214.969 456.892 214.736C455.405 214.458 454.429 213.11 454.661 211.623C454.893 210.136 456.288 209.114 457.775 209.392C459.262 209.625 460.237 211.019 460.005 212.506Z" fill="#3E1A52"/>
<path d="M469.253 219.987C469.253 219.987 483.659 226.772 488.12 242.618C491.837 255.816 488.491 265.435 488.491 265.435C488.491 265.435 484.402 248.566 482.357 243.362C477.013 229.56 469.253 219.987 469.253 219.987V219.987Z" fill="#F49C6D"/>
<path d="M2 331.701H95.7758" stroke="#F49C6D" stroke-width="3.25288" stroke-linecap="round"/>
<path d="M404.706 372.129H579.664" stroke="#3E1A52" stroke-width="2.32348" stroke-linecap="round"/>
<path d="M140.666 317.667C140.433 319.758 138.528 321.338 136.391 321.105C134.299 320.873 132.766 318.968 132.952 316.877C133.184 314.739 135.089 313.206 137.227 313.391C139.318 313.624 140.898 315.529 140.666 317.667Z" fill="white" stroke="#3E1A52" stroke-width="2.32348"/>
<path d="M98.3314 12.8721C98.099 14.9632 96.2403 16.5432 94.1026 16.3109C91.965 16.0785 90.4315 14.1732 90.6639 12.0821C90.8498 9.94451 92.755 8.41101 94.8926 8.59689C97.0302 8.82924 98.5637 10.7345 98.3314 12.8721V12.8721Z" fill="white" stroke="#3E1A52" stroke-width="2.32348"/>
<path d="M580.594 328.029C580.362 330.167 578.456 331.701 576.365 331.468C574.228 331.236 572.694 329.331 572.927 327.239C573.112 325.102 575.018 323.568 577.155 323.754C579.293 323.987 580.826 325.892 580.594 328.029Z" fill="white" stroke="#3E1A52" stroke-width="2.32348"/>
<path d="M478.454 39.4527C478.454 41.5904 476.688 43.3097 474.55 43.3097C472.413 43.3097 470.693 41.5904 470.693 39.4527C470.693 37.3151 472.413 35.5958 474.55 35.5958C476.688 35.5958 478.454 37.3151 478.454 39.4527Z" fill="white" stroke="#3E1A52" stroke-width="2.32348"/>
<path d="M160.275 364.555C159.95 367.622 157.208 369.852 154.141 369.527C151.074 369.202 148.844 366.46 149.169 363.393C149.494 360.326 152.236 358.095 155.303 358.421C158.37 358.746 160.554 361.488 160.275 364.555Z" fill="white" stroke="#3E1A52" stroke-width="2.32348"/>
<path d="M107.58 217.71C107.58 220.452 105.349 222.729 102.561 222.729C99.8194 222.729 97.5889 220.452 97.5889 217.71C97.5889 214.969 99.8194 212.692 102.561 212.692C105.349 212.692 107.58 214.969 107.58 217.71Z" fill="#F49C6D"/>
<path d="M556.384 293.874C556.384 296.988 553.828 299.544 550.668 299.544C547.508 299.544 544.952 296.988 544.952 293.874C544.952 290.714 547.508 288.158 550.668 288.158C553.828 288.158 556.384 290.714 556.384 293.874Z" fill="#F15523"/>
<path d="M439.558 55.0201C439.558 59.063 436.305 62.3158 432.263 62.3158C428.22 62.3158 424.967 59.063 424.967 55.0201C424.967 50.9772 428.22 47.7244 432.263 47.7244C436.305 47.7244 439.558 50.9772 439.558 55.0201Z" fill="white" stroke="#3E1A52" stroke-width="2.32348"/>
<path d="M103.955 356.237C103.676 358.885 101.306 360.791 98.6573 360.558C95.9621 360.279 94.0568 357.863 94.3357 355.214C94.6145 352.565 96.9844 350.66 99.6332 350.939C102.282 351.218 104.234 353.588 103.955 356.237V356.237Z" fill="white" stroke="#3E1A52" stroke-width="2.32348"/>
<path d="M73.098 113.107L67.4287 107.484L73.098 101.815L78.7208 107.484L73.098 113.107Z" fill="#F15523"/>
<path d="M24.6316 211.995L20.6816 208.045L24.6316 204.095L28.5815 208.045L24.6316 211.995Z" fill="#F15523"/>
<path d="M191.038 345.502L187.088 341.552L191.038 337.602L194.941 341.552L191.038 345.502Z" fill="#F49C6D"/>
<path d="M591.096 158.787L587.146 154.883L591.096 150.934L595 154.883L591.096 158.787Z" fill="#F15523"/>
<path d="M528.687 346.803L523.064 341.18L528.687 335.511L534.31 341.18L528.687 346.803Z" fill="#F49C6D"/>
<path d="M484.588 76.7679L478.965 71.1451L484.588 65.4758L490.211 71.1451L484.588 76.7679Z" fill="#F49C6D"/>
</svg>
